<?xml version="1.0" encoding="utf-8"?>
<!-- Generator: Adobe Illustrator 24.2.3, SVG Export Plug-In . SVG Version: 6.00 Build 0)  -->
<svg version="1.1" id="Calque_1" xmlns="http://www.w3.org/2000/svg" xmlns:xlink="http://www.w3.org/1999/xlink" x="0px" y="0px"
	 viewBox="0 0 811 1255" style="enable-background:new 0 0 811 1255;" xml:space="preserve">
<style type="text/css">
	.st0{display:none;}
	.st1{display:inline;}
	.st2{fill:#E5354C;stroke:#E5354C;stroke-width:2;stroke-miterlimit:10;}
	.st3{fill:none;stroke:#E5354C;stroke-width:4;stroke-linecap:square;stroke-miterlimit:10;}
</style>
<g class="st0">
	<g class="st1">
		<g>
			<path class="st2" d="M0.2,1246.8c-18.8,7.8-49.4,7.8-68.1,0c-18.4-7.7-48.5-7.7-66.9,0c-18.8,7.8-49.4,7.8-68.1,0
				c-18.4-7.7-48.5-7.7-66.9,0c-18.8,7.8-49.4,7.8-68.1,0c-18.4-7.7-48.5-7.7-66.9,0c-18.8,7.8-49.3,7.8-68.1,0
				c-18.4-7.7-48.5-7.7-66.9,0c-18.8,7.8-49.4,7.8-68.1,0c-18.5-7.7-48.5-7.7-66.9,0c-18.8,7.8-49.4,7.8-68.1,0
				c-18.5-7.7-48.5-7.7-66.9,0c-18.8,7.8-49.4,7.8-68.2,0l-33.8-14.1l0.6-1.5l33.8,14.1c18.5,7.7,48.5,7.7,66.9,0
				c18.8-7.8,49.4-7.8,68.2,0c18.4,7.7,48.5,7.7,66.9,0c18.8-7.8,49.4-7.8,68.1,0c18.5,7.7,48.5,7.7,66.9,0
				c18.8-7.8,49.4-7.8,68.1,0c18.4,7.7,48.5,7.7,66.9,0c18.8-7.8,49.3-7.8,68.1,0c18.5,7.7,48.5,7.7,66.9,0
				c18.8-7.8,49.4-7.8,68.1,0c18.4,7.7,48.5,7.7,66.9,0c18.8-7.8,49.4-7.8,68.1,0c18.4,7.7,48.5,7.7,66.9,0"/>
		</g>
	</g>
	<g class="st1">
		<g>
			<path class="st2" d="M0.2,1220c-18.8,7.8-49.4,7.8-68.1,0c-18.4-7.7-48.5-7.7-66.9,0c-18.8,7.8-49.4,7.8-68.1,0
				c-18.4-7.7-48.5-7.7-66.9,0c-18.8,7.8-49.4,7.8-68.1,0c-18.4-7.7-48.5-7.7-66.9,0c-18.8,7.8-49.3,7.8-68.1,0
				c-18.4-7.7-48.5-7.7-66.9,0c-18.8,7.8-49.4,7.8-68.1,0c-18.5-7.7-48.5-7.7-66.9,0c-18.8,7.8-49.4,7.8-68.1,0
				c-18.5-7.7-48.5-7.7-66.9,0c-18.8,7.8-49.4,7.8-68.2,0l-33.8-14.1l0.6-1.5l33.8,14.1c18.5,7.7,48.5,7.7,66.9,0
				c18.8-7.8,49.4-7.8,68.2,0c18.4,7.7,48.5,7.7,66.9,0c18.8-7.8,49.4-7.8,68.1,0c18.5,7.7,48.5,7.7,66.9,0
				c18.8-7.8,49.4-7.8,68.1,0c18.4,7.7,48.5,7.7,66.9,0c18.8-7.8,49.3-7.8,68.1,0c18.5,7.7,48.5,7.7,66.9,0
				c18.8-7.8,49.4-7.8,68.1,0c18.4,7.7,48.5,7.7,66.9,0c18.8-7.8,49.4-7.8,68.1,0c18.4,7.7,48.5,7.7,66.9,0"/>
		</g>
	</g>
	<g class="st1">
		<g>
			<path class="st2" d="M0.2,1193.1c-18.8,7.8-49.4,7.8-68.1,0c-18.4-7.7-48.5-7.7-66.9,0c-18.8,7.8-49.4,7.8-68.1,0
				c-18.4-7.7-48.5-7.7-66.9,0c-18.8,7.8-49.4,7.8-68.1,0c-18.4-7.7-48.5-7.7-66.9,0c-18.8,7.8-49.3,7.8-68.1,0
				c-18.4-7.7-48.5-7.7-66.9,0c-18.8,7.8-49.4,7.8-68.1,0c-18.5-7.7-48.5-7.7-66.9,0c-18.8,7.8-49.4,7.8-68.1,0
				c-18.5-7.7-48.5-7.7-66.9,0c-18.8,7.8-49.4,7.8-68.2,0l-33.8-14.1l0.6-1.5l33.8,14.1c18.5,7.7,48.5,7.7,66.9,0
				c18.8-7.8,49.4-7.8,68.2,0c18.4,7.7,48.5,7.7,66.9,0c18.8-7.8,49.4-7.8,68.1,0c18.5,7.7,48.5,7.7,66.9,0
				c18.8-7.8,49.4-7.8,68.1,0c18.4,7.7,48.5,7.7,66.9,0c18.8-7.8,49.3-7.8,68.1,0c18.5,7.7,48.5,7.7,66.9,0
				c18.8-7.8,49.4-7.8,68.1,0c18.4,7.7,48.5,7.7,66.9,0c18.8-7.8,49.4-7.8,68.1,0c18.4,7.7,48.5,7.7,66.9,0"/>
		</g>
	</g>
	<g class="st1">
		<g>
			<path class="st2" d="M0.2,1166.3c-18.8,7.8-49.4,7.8-68.1,0c-18.4-7.7-48.5-7.7-66.9,0c-18.8,7.8-49.4,7.8-68.1,0
				c-18.4-7.7-48.5-7.7-66.9,0c-18.8,7.8-49.4,7.8-68.1,0c-18.4-7.7-48.5-7.7-66.9,0c-18.8,7.8-49.3,7.8-68.1,0
				c-18.4-7.7-48.5-7.7-66.9,0c-18.8,7.8-49.4,7.8-68.1,0c-18.5-7.7-48.5-7.7-66.9,0c-18.8,7.8-49.4,7.8-68.1,0
				c-18.5-7.7-48.5-7.7-66.9,0c-18.8,7.8-49.4,7.8-68.2,0l-33.8-14.1l0.6-1.5l33.8,14.1c18.5,7.7,48.5,7.7,66.9,0
				c18.8-7.8,49.4-7.8,68.2,0c18.4,7.7,48.5,7.7,66.9,0c18.8-7.8,49.4-7.8,68.1,0c18.5,7.7,48.5,7.7,66.9,0
				c18.8-7.8,49.4-7.8,68.1,0c18.4,7.7,48.5,7.7,66.9,0c18.8-7.8,49.3-7.8,68.1,0c18.5,7.7,48.5,7.7,66.9,0
				c18.8-7.8,49.4-7.8,68.1,0c18.4,7.7,48.5,7.7,66.9,0c18.8-7.8,49.4-7.8,68.1,0c18.4,7.7,48.5,7.7,66.9,0"/>
		</g>
	</g>
	<g class="st1">
		<g>
			<path class="st2" d="M0.2,1139.5c-18.8,7.8-49.4,7.8-68.1,0c-18.4-7.7-48.5-7.7-66.9,0c-18.8,7.8-49.4,7.8-68.1,0
				c-18.4-7.7-48.5-7.7-66.9,0c-18.8,7.8-49.4,7.8-68.1,0c-18.4-7.7-48.5-7.7-66.9,0c-18.8,7.8-49.3,7.8-68.1,0
				c-18.4-7.7-48.5-7.7-66.9,0c-18.8,7.8-49.4,7.8-68.1,0c-18.4-7.7-48.5-7.7-66.9,0c-18.8,7.8-49.4,7.8-68.1,0
				c-18.5-7.7-48.5-7.7-66.9,0c-18.8,7.8-49.4,7.8-68.2,0l-33.8-14.1l0.6-1.5l33.8,14.1c18.5,7.7,48.5,7.7,66.9,0
				c18.8-7.8,49.4-7.8,68.2,0c18.4,7.7,48.5,7.7,66.9,0c18.8-7.8,49.4-7.8,68.1,0c18.5,7.7,48.5,7.7,66.9,0
				c18.8-7.8,49.4-7.8,68.1,0c18.4,7.7,48.5,7.7,66.9,0c18.8-7.8,49.3-7.8,68.1,0c18.5,7.7,48.5,7.7,66.9,0
				c18.8-7.8,49.4-7.8,68.1,0c18.4,7.7,48.5,7.7,66.9,0c18.8-7.8,49.4-7.8,68.1,0c18.4,7.7,48.5,7.7,66.9,0"/>
		</g>
	</g>
	<g class="st1">
		<g>
			<path class="st2" d="M0.2,1112.6c-18.8,7.8-49.4,7.8-68.1,0c-18.4-7.7-48.5-7.7-66.9,0c-18.8,7.8-49.4,7.8-68.1,0
				c-18.4-7.7-48.5-7.7-66.9,0c-18.8,7.8-49.4,7.8-68.1,0c-18.4-7.7-48.5-7.7-66.9,0c-18.8,7.8-49.3,7.8-68.1,0
				c-18.4-7.7-48.5-7.7-66.9,0c-18.8,7.8-49.4,7.8-68.1,0c-18.4-7.7-48.5-7.7-66.9,0c-18.8,7.8-49.4,7.8-68.1,0
				c-18.4-7.7-48.5-7.7-66.9,0c-18.8,7.8-49.4,7.8-68.2,0l-33.8-14.1l0.6-1.5l33.8,14.1c18.5,7.7,48.5,7.7,66.9,0
				c18.8-7.8,49.4-7.8,68.2,0c18.4,7.7,48.5,7.7,66.9,0c18.8-7.8,49.4-7.8,68.1,0c18.4,7.7,48.5,7.7,66.9,0
				c18.8-7.8,49.4-7.8,68.1,0c18.4,7.7,48.5,7.7,66.9,0c18.8-7.8,49.3-7.8,68.1,0c18.5,7.7,48.5,7.7,66.9,0
				c18.8-7.8,49.4-7.8,68.1,0c18.4,7.7,48.5,7.7,66.9,0c18.8-7.8,49.4-7.8,68.1,0c18.4,7.7,48.5,7.7,66.9,0"/>
		</g>
	</g>
	<g class="st1">
		<g>
			<path class="st2" d="M0.2,1085.8c-18.8,7.8-49.4,7.8-68.1,0c-18.4-7.7-48.5-7.7-66.9,0c-18.8,7.8-49.4,7.8-68.1,0
				c-18.4-7.7-48.5-7.7-66.9,0c-18.8,7.8-49.4,7.8-68.1,0c-18.4-7.7-48.5-7.7-66.9,0c-18.8,7.8-49.3,7.8-68.1,0
				c-18.4-7.7-48.5-7.7-66.9,0c-18.8,7.8-49.4,7.8-68.1,0c-18.4-7.7-48.5-7.7-66.9,0c-18.8,7.8-49.4,7.8-68.1,0
				c-18.4-7.7-48.5-7.7-66.9,0c-18.8,7.8-49.4,7.8-68.2,0l-33.8-14.1l0.6-1.5l33.8,14.1c18.5,7.7,48.5,7.7,66.9,0
				c18.8-7.8,49.4-7.8,68.2,0c18.4,7.7,48.5,7.7,66.9,0c18.8-7.8,49.4-7.8,68.1,0c18.4,7.7,48.5,7.7,66.9,0
				c18.8-7.8,49.4-7.8,68.1,0c18.4,7.7,48.5,7.7,66.9,0c18.8-7.8,49.3-7.8,68.1,0c18.5,7.7,48.5,7.7,66.9,0
				c18.8-7.8,49.4-7.8,68.1,0c18.4,7.7,48.5,7.7,66.9,0c18.8-7.8,49.4-7.8,68.1,0c18.4,7.7,48.5,7.7,66.9,0"/>
		</g>
	</g>
	<g class="st1">
		<g>
			<path class="st2" d="M0.2,1059c-18.8,7.8-49.4,7.8-68.1,0c-18.4-7.7-48.5-7.7-66.9,0c-18.8,7.8-49.4,7.8-68.1,0
				c-18.4-7.7-48.5-7.7-66.9,0c-18.8,7.8-49.4,7.8-68.1,0c-18.4-7.7-48.5-7.7-66.9,0c-18.8,7.8-49.3,7.8-68.1,0
				c-18.4-7.7-48.5-7.7-66.9,0c-18.8,7.8-49.4,7.8-68.1,0c-18.4-7.7-48.5-7.7-66.9,0c-18.8,7.8-49.4,7.8-68.1,0
				c-18.4-7.7-48.5-7.7-66.9,0c-18.8,7.8-49.4,7.8-68.2,0l-33.8-14.1l0.6-1.5l33.8,14.1c18.5,7.7,48.5,7.7,66.9,0
				c18.8-7.8,49.4-7.8,68.2,0c18.4,7.7,48.5,7.7,66.9,0c18.8-7.8,49.4-7.8,68.1,0c18.4,7.7,48.5,7.7,66.9,0
				c18.8-7.8,49.4-7.8,68.1,0c18.4,7.7,48.5,7.7,66.9,0c18.8-7.8,49.3-7.8,68.1,0c18.5,7.7,48.5,7.7,66.9,0
				c18.8-7.8,49.4-7.8,68.1,0c18.4,7.7,48.5,7.7,66.9,0c18.8-7.8,49.4-7.8,68.1,0c18.4,7.7,48.5,7.7,66.9,0"/>
		</g>
	</g>
	<g class="st1">
		<g>
			<path class="st2" d="M0.2,1032.1c-18.8,7.8-49.4,7.8-68.1,0c-18.4-7.7-48.5-7.7-66.9,0c-18.8,7.8-49.4,7.8-68.1,0
				c-18.4-7.7-48.5-7.7-66.9,0c-18.8,7.8-49.4,7.8-68.1,0c-18.4-7.7-48.5-7.7-66.9,0c-18.8,7.8-49.3,7.8-68.1,0
				c-18.4-7.7-48.5-7.7-66.9,0c-18.8,7.8-49.4,7.8-68.1,0c-18.4-7.7-48.5-7.7-66.9,0c-18.8,7.8-49.4,7.8-68.1,0
				c-18.4-7.7-48.5-7.7-66.9,0c-18.8,7.8-49.4,7.8-68.2,0l-33.8-14.1l0.6-1.5l33.8,14.1c18.5,7.7,48.5,7.7,66.9,0
				c18.8-7.8,49.4-7.8,68.2,0c18.4,7.7,48.5,7.7,66.9,0c18.8-7.8,49.4-7.8,68.1,0c18.4,7.7,48.5,7.7,66.9,0
				c18.8-7.8,49.4-7.8,68.1,0c18.4,7.7,48.5,7.7,66.9,0c18.8-7.8,49.3-7.8,68.1,0c18.5,7.7,48.5,7.7,66.9,0
				c18.8-7.8,49.4-7.8,68.1,0c18.4,7.7,48.5,7.7,66.9,0c18.8-7.8,49.4-7.8,68.1,0c18.4,7.7,48.5,7.7,66.9,0"/>
		</g>
	</g>
	<g class="st1">
		<g>
			<path class="st2" d="M0.2,1005.3c-18.8,7.8-49.4,7.8-68.1,0c-18.4-7.7-48.5-7.7-66.9,0c-18.8,7.8-49.4,7.8-68.1,0
				c-18.4-7.7-48.5-7.7-66.9,0c-18.8,7.8-49.4,7.8-68.1,0c-18.4-7.7-48.5-7.7-66.9,0c-18.8,7.8-49.3,7.8-68.1,0
				c-18.4-7.7-48.5-7.7-66.9,0c-18.8,7.8-49.4,7.8-68.1,0c-18.5-7.7-48.5-7.7-66.9,0c-18.8,7.8-49.4,7.8-68.1,0
				c-18.5-7.7-48.5-7.7-66.9,0c-18.8,7.8-49.4,7.8-68.2,0l-33.8-14.1l0.6-1.5l33.8,14.1c18.5,7.7,48.5,7.7,66.9,0
				c18.8-7.8,49.4-7.8,68.2,0c18.4,7.7,48.5,7.7,66.9,0c18.8-7.8,49.4-7.8,68.1,0c18.5,7.7,48.5,7.7,66.9,0
				c18.8-7.8,49.4-7.8,68.1,0c18.4,7.7,48.5,7.7,66.9,0c18.8-7.8,49.3-7.8,68.1,0c18.5,7.7,48.5,7.7,66.9,0
				c18.8-7.8,49.4-7.8,68.1,0c18.4,7.7,48.5,7.7,66.9,0c18.8-7.8,49.4-7.8,68.1,0c18.4,7.7,48.5,7.7,66.9,0"/>
		</g>
	</g>
	<g class="st1">
		<g>
			<path class="st2" d="M0.2,978.5c-18.8,7.8-49.4,7.8-68.1,0c-18.4-7.7-48.5-7.7-66.9,0c-18.8,7.8-49.4,7.8-68.1,0
				c-18.4-7.7-48.5-7.7-66.9,0c-18.8,7.8-49.4,7.8-68.1,0c-18.4-7.7-48.5-7.7-66.9,0c-18.8,7.8-49.3,7.8-68.1,0
				c-18.4-7.7-48.5-7.7-66.9,0c-18.8,7.8-49.4,7.8-68.1,0c-18.5-7.7-48.5-7.7-66.9,0c-18.8,7.8-49.4,7.8-68.1,0
				c-18.5-7.7-48.5-7.7-66.9,0c-18.8,7.8-49.4,7.8-68.2,0l-33.8-14.1l0.6-1.5l33.8,14.1c18.5,7.7,48.5,7.7,66.9,0
				c18.8-7.8,49.4-7.8,68.2,0c18.4,7.7,48.5,7.7,66.9,0c18.8-7.8,49.4-7.8,68.1,0c18.5,7.7,48.5,7.7,66.9,0
				c18.8-7.8,49.4-7.8,68.1,0c18.4,7.7,48.5,7.7,66.9,0c18.8-7.8,49.3-7.8,68.1,0c18.5,7.7,48.5,7.7,66.9,0
				c18.8-7.8,49.4-7.8,68.1,0c18.4,7.7,48.5,7.7,66.9,0c18.8-7.8,49.4-7.8,68.1,0c18.4,7.7,48.5,7.7,66.9,0"/>
		</g>
	</g>
	<g class="st1">
		<g>
			<path class="st2" d="M0.2,951.6c-18.8,7.8-49.4,7.8-68.1,0c-18.4-7.7-48.5-7.7-66.9,0c-18.8,7.8-49.4,7.8-68.1,0
				c-18.4-7.7-48.5-7.7-66.9,0c-18.8,7.8-49.4,7.8-68.1,0c-18.4-7.7-48.5-7.7-66.9,0c-18.8,7.8-49.3,7.8-68.1,0
				c-18.4-7.7-48.5-7.7-66.9,0c-18.8,7.8-49.4,7.8-68.1,0c-18.5-7.7-48.5-7.7-66.9,0c-18.8,7.8-49.4,7.8-68.1,0
				c-18.5-7.7-48.5-7.7-66.9,0c-18.8,7.8-49.4,7.8-68.2,0l-33.8-14.1l0.6-1.5l33.8,14.1c18.5,7.7,48.5,7.7,66.9,0
				c18.8-7.8,49.4-7.8,68.2,0c18.4,7.7,48.5,7.7,66.9,0c18.8-7.8,49.4-7.8,68.1,0c18.5,7.7,48.5,7.7,66.9,0
				c18.8-7.8,49.4-7.8,68.1,0c18.4,7.7,48.5,7.7,66.9,0c18.8-7.8,49.3-7.8,68.1,0c18.5,7.7,48.5,7.7,66.9,0
				c18.8-7.8,49.4-7.8,68.1,0c18.4,7.7,48.5,7.7,66.9,0c18.8-7.8,49.4-7.8,68.1,0c18.4,7.7,48.5,7.7,66.9,0"/>
		</g>
	</g>
	<g class="st1">
		<g>
			<path class="st2" d="M0.2,924.8c-18.8,7.8-49.4,7.8-68.1,0c-18.4-7.7-48.5-7.7-66.9,0c-18.8,7.8-49.4,7.8-68.1,0
				c-18.4-7.7-48.5-7.7-66.9,0c-18.8,7.8-49.4,7.8-68.1,0c-18.4-7.7-48.5-7.7-66.9,0c-18.8,7.8-49.3,7.8-68.1,0
				c-18.4-7.7-48.5-7.7-66.9,0c-18.8,7.8-49.4,7.8-68.1,0c-18.5-7.7-48.5-7.7-66.9,0c-18.8,7.8-49.4,7.8-68.1,0
				c-18.5-7.7-48.5-7.7-66.9,0c-18.8,7.8-49.4,7.8-68.2,0l-33.8-14.1l0.6-1.5l33.8,14.1c18.5,7.7,48.5,7.7,66.9,0
				c18.8-7.8,49.4-7.8,68.2,0c18.4,7.7,48.5,7.7,66.9,0c18.8-7.8,49.4-7.8,68.1,0c18.5,7.7,48.5,7.7,66.9,0
				c18.8-7.8,49.4-7.8,68.1,0c18.4,7.7,48.5,7.7,66.9,0c18.8-7.8,49.3-7.8,68.1,0c18.5,7.7,48.5,7.7,66.9,0
				c18.8-7.8,49.4-7.8,68.1,0c18.4,7.7,48.5,7.7,66.9,0c18.8-7.8,49.4-7.8,68.1,0c18.4,7.7,48.5,7.7,66.9,0"/>
		</g>
	</g>
	<g class="st1">
		<g>
			<path class="st2" d="M0.2,898c-18.8,7.8-49.4,7.8-68.1,0c-18.4-7.7-48.5-7.7-66.9,0c-18.8,7.8-49.4,7.8-68.1,0
				c-18.4-7.7-48.5-7.7-66.9,0c-18.8,7.8-49.4,7.8-68.1,0c-18.4-7.7-48.5-7.7-66.9,0c-18.8,7.8-49.3,7.8-68.1,0
				c-18.4-7.7-48.5-7.7-66.9,0c-18.8,7.8-49.4,7.8-68.1,0c-18.5-7.7-48.5-7.7-66.9,0c-18.8,7.8-49.4,7.8-68.1,0
				c-18.5-7.7-48.5-7.7-66.9,0c-18.8,7.8-49.4,7.8-68.2,0l-33.8-14.1l0.6-1.5l33.8,14.1c18.5,7.7,48.5,7.7,66.9,0
				c18.8-7.8,49.4-7.8,68.2,0c18.4,7.7,48.5,7.7,66.9,0c18.8-7.8,49.4-7.8,68.1,0c18.5,7.7,48.5,7.7,66.9,0
				c18.8-7.8,49.4-7.8,68.1,0c18.4,7.7,48.5,7.7,66.9,0c18.8-7.8,49.3-7.8,68.1,0c18.5,7.7,48.5,7.7,66.9,0
				c18.8-7.8,49.4-7.8,68.1,0c18.4,7.7,48.5,7.7,66.9,0c18.8-7.8,49.4-7.8,68.1,0c18.4,7.7,48.5,7.7,66.9,0"/>
		</g>
	</g>
	<g class="st1">
		<g>
			<path class="st2" d="M0.2,871.1c-18.8,7.8-49.4,7.8-68.1,0c-18.4-7.7-48.5-7.7-66.9,0c-18.8,7.8-49.4,7.8-68.1,0
				c-18.4-7.7-48.5-7.7-66.9,0c-18.8,7.8-49.4,7.8-68.1,0c-18.4-7.7-48.5-7.7-66.9,0c-18.8,7.8-49.3,7.8-68.1,0
				c-18.4-7.7-48.5-7.7-66.9,0c-18.8,7.8-49.4,7.8-68.1,0c-18.4-7.7-48.5-7.7-66.9,0c-18.8,7.8-49.4,7.8-68.1,0
				c-18.5-7.7-48.5-7.7-66.9,0c-18.8,7.8-49.4,7.8-68.2,0l-33.8-14.1l0.6-1.5l33.8,14.1c18.5,7.7,48.5,7.7,66.9,0
				c18.8-7.8,49.4-7.8,68.2,0c18.4,7.7,48.5,7.7,66.9,0c18.8-7.8,49.4-7.8,68.1,0c18.5,7.7,48.5,7.7,66.9,0
				c18.8-7.8,49.4-7.8,68.1,0c18.4,7.7,48.5,7.7,66.9,0c18.8-7.8,49.3-7.8,68.1,0c18.5,7.7,48.5,7.7,66.9,0
				c18.8-7.8,49.4-7.8,68.1,0c18.4,7.7,48.5,7.7,66.9,0c18.8-7.8,49.4-7.8,68.1,0c18.4,7.7,48.5,7.7,66.9,0"/>
		</g>
	</g>
	<g class="st1">
		<g>
			<path class="st2" d="M0.2,844.3c-18.8,7.8-49.4,7.8-68.1,0c-18.4-7.7-48.5-7.7-66.9,0c-18.8,7.8-49.4,7.8-68.1,0
				c-18.4-7.7-48.5-7.7-66.9,0c-18.8,7.8-49.4,7.8-68.1,0c-18.4-7.7-48.5-7.7-66.9,0c-18.8,7.8-49.3,7.8-68.1,0
				c-18.4-7.7-48.5-7.7-66.9,0c-18.8,7.8-49.4,7.8-68.1,0c-18.4-7.7-48.5-7.7-66.9,0c-18.8,7.8-49.4,7.8-68.1,0
				c-18.4-7.7-48.5-7.7-66.9,0c-18.8,7.8-49.4,7.8-68.2,0l-33.8-14.1l0.6-1.5l33.8,14.1c18.5,7.7,48.5,7.7,66.9,0
				c18.8-7.8,49.4-7.8,68.2,0c18.4,7.7,48.5,7.7,66.9,0c18.8-7.8,49.4-7.8,68.1,0c18.4,7.7,48.5,7.7,66.9,0
				c18.8-7.8,49.4-7.8,68.1,0c18.4,7.7,48.5,7.7,66.9,0c18.8-7.8,49.3-7.8,68.1,0c18.5,7.7,48.5,7.7,66.9,0
				c18.8-7.8,49.4-7.8,68.1,0c18.4,7.7,48.5,7.7,66.9,0c18.8-7.8,49.4-7.8,68.1,0c18.4,7.7,48.5,7.7,66.9,0"/>
		</g>
	</g>
	<g class="st1">
		<g>
			<path class="st2" d="M0.2,817.5c-18.8,7.8-49.4,7.8-68.1,0c-18.4-7.7-48.5-7.7-66.9,0c-18.8,7.8-49.4,7.8-68.1,0
				c-18.4-7.7-48.5-7.7-66.9,0c-18.8,7.8-49.4,7.8-68.1,0c-18.4-7.7-48.5-7.7-66.9,0c-18.8,7.8-49.3,7.8-68.1,0
				c-18.4-7.7-48.5-7.7-66.9,0c-18.8,7.8-49.4,7.8-68.1,0c-18.4-7.7-48.5-7.7-66.9,0c-18.8,7.8-49.4,7.8-68.1,0
				c-18.4-7.7-48.5-7.7-66.9,0c-18.8,7.8-49.4,7.8-68.2,0l-33.8-14.1l0.6-1.5l33.8,14.1c18.5,7.7,48.5,7.7,66.9,0
				c18.8-7.8,49.4-7.8,68.2,0c18.4,7.7,48.5,7.7,66.9,0c18.8-7.8,49.4-7.8,68.1,0c18.4,7.7,48.5,7.7,66.9,0
				c18.8-7.8,49.4-7.8,68.1,0c18.4,7.7,48.5,7.7,66.9,0c18.8-7.8,49.3-7.8,68.1,0c18.5,7.7,48.5,7.7,66.9,0
				c18.8-7.8,49.4-7.8,68.1,0c18.4,7.7,48.5,7.7,66.9,0c18.8-7.8,49.4-7.8,68.1,0c18.4,7.7,48.5,7.7,66.9,0"/>
		</g>
	</g>
	<g class="st1">
		<g>
			<path class="st2" d="M0.2,790.7c-18.8,7.8-49.4,7.8-68.1,0c-18.4-7.7-48.5-7.7-66.9,0c-18.8,7.8-49.4,7.8-68.1,0
				c-18.4-7.7-48.5-7.7-66.9,0c-18.8,7.8-49.4,7.8-68.1,0c-18.4-7.7-48.5-7.7-66.9,0c-18.8,7.8-49.3,7.8-68.1,0
				c-18.4-7.7-48.5-7.7-66.9,0c-18.8,7.8-49.4,7.8-68.1,0c-18.4-7.7-48.5-7.7-66.9,0c-18.8,7.8-49.4,7.8-68.1,0
				c-18.4-7.7-48.5-7.7-66.9,0c-18.8,7.8-49.4,7.8-68.2,0l-33.8-14.1l0.6-1.5l33.8,14.1c18.5,7.7,48.5,7.7,66.9,0
				c18.8-7.8,49.4-7.8,68.2,0c18.4,7.7,48.5,7.7,66.9,0c18.8-7.8,49.4-7.8,68.1,0c18.4,7.7,48.5,7.7,66.9,0
				c18.8-7.8,49.4-7.8,68.1,0c18.4,7.7,48.5,7.7,66.9,0c18.8-7.8,49.3-7.8,68.1,0c18.5,7.7,48.5,7.7,66.9,0
				c18.8-7.8,49.4-7.8,68.1,0c18.4,7.7,48.5,7.7,66.9,0c18.8-7.8,49.4-7.8,68.1,0c18.4,7.7,48.5,7.7,66.9,0"/>
		</g>
	</g>
	<g class="st1">
		<g>
			<path class="st2" d="M0.2,763.8c-18.8,7.8-49.4,7.8-68.1,0c-18.4-7.7-48.5-7.7-66.9,0c-18.8,7.8-49.4,7.8-68.1,0
				c-18.4-7.7-48.5-7.7-66.9,0c-18.8,7.8-49.4,7.8-68.1,0c-18.4-7.7-48.5-7.7-66.9,0c-18.8,7.8-49.3,7.8-68.1,0
				c-18.4-7.7-48.5-7.7-66.9,0c-18.8,7.8-49.4,7.8-68.1,0c-18.4-7.7-48.5-7.7-66.9,0c-18.8,7.8-49.4,7.8-68.1,0
				c-18.4-7.7-48.5-7.7-66.9,0c-18.8,7.8-49.4,7.8-68.2,0l-33.8-14.1l0.6-1.5l33.8,14.1c18.5,7.7,48.5,7.7,66.9,0
				c18.8-7.8,49.4-7.8,68.2,0c18.4,7.7,48.5,7.7,66.9,0c18.8-7.8,49.4-7.8,68.1,0c18.4,7.7,48.5,7.7,66.9,0
				c18.8-7.8,49.4-7.8,68.1,0c18.4,7.7,48.5,7.7,66.9,0c18.8-7.8,49.3-7.8,68.1,0c18.5,7.7,48.5,7.7,66.9,0
				c18.8-7.8,49.4-7.8,68.1,0c18.4,7.7,48.5,7.7,66.9,0c18.8-7.8,49.4-7.8,68.1,0c18.4,7.7,48.5,7.7,66.9,0"/>
		</g>
	</g>
	<g class="st1">
		<g>
			<path class="st2" d="M0.2,737c-18.8,7.8-49.4,7.8-68.1,0c-18.4-7.7-48.5-7.7-66.9,0c-18.8,7.8-49.4,7.8-68.1,0
				c-18.4-7.7-48.5-7.7-66.9,0c-18.8,7.8-49.4,7.8-68.1,0c-18.4-7.7-48.5-7.7-66.9,0c-18.8,7.8-49.3,7.8-68.1,0
				c-18.4-7.7-48.5-7.7-66.9,0c-18.8,7.8-49.4,7.8-68.1,0c-18.5-7.7-48.5-7.7-66.9,0c-18.8,7.8-49.4,7.8-68.1,0
				c-18.5-7.7-48.5-7.7-66.9,0c-18.8,7.8-49.4,7.8-68.2,0l-33.8-14.1l0.6-1.5l33.8,14.1c18.5,7.7,48.5,7.7,66.9,0
				c18.8-7.8,49.4-7.8,68.2,0c18.4,7.7,48.5,7.7,66.9,0c18.8-7.8,49.4-7.8,68.1,0c18.5,7.7,48.5,7.7,66.9,0
				c18.8-7.8,49.4-7.8,68.1,0c18.4,7.7,48.5,7.7,66.9,0c18.8-7.8,49.3-7.8,68.1,0c18.5,7.7,48.5,7.7,66.9,0
				c18.8-7.8,49.4-7.8,68.1,0c18.4,7.7,48.5,7.7,66.9,0c18.8-7.8,49.4-7.8,68.1,0c18.4,7.7,48.5,7.7,66.9,0"/>
		</g>
	</g>
	<g class="st1">
		<g>
			<path class="st2" d="M0.2,710.2c-18.8,7.8-49.4,7.8-68.1,0c-18.4-7.7-48.5-7.7-66.9,0c-18.8,7.8-49.4,7.8-68.1,0
				c-18.4-7.7-48.5-7.7-66.9,0c-18.8,7.8-49.4,7.8-68.1,0c-18.4-7.7-48.5-7.7-66.9,0c-18.8,7.8-49.3,7.8-68.1,0
				c-18.4-7.7-48.5-7.7-66.9,0c-18.8,7.8-49.4,7.8-68.1,0c-18.5-7.7-48.5-7.7-66.9,0c-18.8,7.8-49.4,7.8-68.1,0
				c-18.5-7.7-48.5-7.7-66.9,0c-18.8,7.8-49.4,7.8-68.2,0l-33.8-14.1l0.6-1.5l33.8,14.1c18.5,7.7,48.5,7.7,66.9,0
				c18.8-7.8,49.4-7.8,68.2,0c18.4,7.7,48.5,7.7,66.9,0c18.8-7.8,49.4-7.8,68.1,0c18.5,7.7,48.5,7.7,66.9,0
				c18.8-7.8,49.4-7.8,68.1,0c18.4,7.7,48.5,7.7,66.9,0c18.8-7.8,49.3-7.8,68.1,0c18.5,7.7,48.5,7.7,66.9,0
				c18.8-7.8,49.4-7.8,68.1,0c18.4,7.7,48.5,7.7,66.9,0c18.8-7.8,49.4-7.8,68.1,0c18.4,7.7,48.5,7.7,66.9,0"/>
		</g>
	</g>
	<g class="st1">
		<g>
			<path class="st2" d="M0.2,683.3c-18.8,7.8-49.4,7.8-68.1,0c-18.4-7.7-48.5-7.7-66.9,0c-18.8,7.8-49.4,7.8-68.1,0
				c-18.4-7.7-48.5-7.7-66.9,0c-18.8,7.8-49.4,7.8-68.1,0c-18.4-7.7-48.5-7.7-66.9,0c-18.8,7.8-49.3,7.8-68.1,0
				c-18.4-7.7-48.5-7.7-66.9,0c-18.8,7.8-49.4,7.8-68.1,0c-18.5-7.7-48.5-7.7-66.9,0c-18.8,7.8-49.4,7.8-68.1,0
				c-18.5-7.7-48.5-7.7-66.9,0c-18.8,7.8-49.4,7.8-68.2,0l-33.8-14.1l0.6-1.5l33.8,14.1c18.5,7.7,48.5,7.7,66.9,0
				c18.8-7.8,49.4-7.8,68.2,0c18.4,7.7,48.5,7.7,66.9,0c18.8-7.8,49.4-7.8,68.1,0c18.5,7.7,48.5,7.7,66.9,0
				c18.8-7.8,49.4-7.8,68.1,0c18.4,7.7,48.5,7.7,66.9,0c18.8-7.8,49.3-7.8,68.1,0c18.5,7.7,48.5,7.7,66.9,0
				c18.8-7.8,49.4-7.8,68.1,0c18.4,7.7,48.5,7.7,66.9,0c18.8-7.8,49.4-7.8,68.1,0c18.4,7.7,48.5,7.7,66.9,0"/>
		</g>
	</g>
	<g class="st1">
		<g>
			<path class="st2" d="M0.2,656.5c-18.8,7.8-49.4,7.8-68.1,0c-18.4-7.7-48.5-7.7-66.9,0c-18.8,7.8-49.4,7.8-68.1,0
				c-18.4-7.7-48.5-7.7-66.9,0c-18.8,7.8-49.4,7.8-68.1,0c-18.4-7.7-48.5-7.7-66.9,0c-18.8,7.8-49.3,7.8-68.1,0
				c-18.4-7.7-48.5-7.7-66.9,0c-18.8,7.8-49.4,7.8-68.1,0c-18.5-7.7-48.5-7.7-66.9,0c-18.8,7.8-49.4,7.8-68.1,0
				c-18.5-7.7-48.5-7.7-66.9,0c-18.8,7.8-49.4,7.8-68.2,0l-33.8-14.1l0.6-1.5l33.8,14.1c18.5,7.7,48.5,7.7,66.9,0
				c18.8-7.8,49.4-7.8,68.2,0c18.4,7.7,48.5,7.7,66.9,0c18.8-7.8,49.4-7.8,68.1,0c18.5,7.7,48.5,7.7,66.9,0
				c18.8-7.8,49.4-7.8,68.1,0c18.4,7.7,48.5,7.7,66.9,0c18.8-7.8,49.3-7.8,68.1,0c18.5,7.7,48.5,7.7,66.9,0
				c18.8-7.8,49.4-7.8,68.1,0c18.4,7.7,48.5,7.7,66.9,0c18.8-7.8,49.4-7.8,68.1,0c18.4,7.7,48.5,7.7,66.9,0"/>
		</g>
	</g>
	<g class="st1">
		<g>
			<path class="st2" d="M0.2,629.7c-18.8,7.8-49.4,7.8-68.1,0c-18.4-7.7-48.5-7.7-66.9,0c-18.8,7.8-49.4,7.8-68.1,0
				c-18.4-7.7-48.5-7.7-66.9,0c-18.8,7.8-49.4,7.8-68.1,0c-18.4-7.7-48.5-7.7-66.9,0c-18.8,7.8-49.3,7.8-68.1,0
				c-18.4-7.7-48.5-7.7-66.9,0c-18.8,7.8-49.4,7.8-68.1,0c-18.5-7.7-48.5-7.7-66.9,0c-18.8,7.8-49.4,7.8-68.1,0
				c-18.5-7.7-48.5-7.7-66.9,0c-18.8,7.8-49.4,7.8-68.2,0l-33.8-14.1l0.6-1.5l33.8,14.1c18.5,7.7,48.5,7.7,66.9,0
				c18.8-7.8,49.4-7.8,68.2,0c18.4,7.7,48.5,7.7,66.9,0c18.8-7.8,49.4-7.8,68.1,0c18.5,7.7,48.5,7.7,66.9,0
				c18.8-7.8,49.4-7.8,68.1,0c18.4,7.7,48.5,7.7,66.9,0c18.8-7.8,49.3-7.8,68.1,0c18.5,7.7,48.5,7.7,66.9,0
				c18.8-7.8,49.4-7.8,68.1,0c18.4,7.7,48.5,7.7,66.9,0c18.8-7.8,49.4-7.8,68.1,0c18.4,7.7,48.5,7.7,66.9,0"/>
		</g>
	</g>
	<g class="st1">
		<g>
			<path class="st2" d="M0.2,602.8c-18.8,7.8-49.4,7.8-68.1,0c-18.4-7.7-48.5-7.7-66.9,0c-18.8,7.8-49.4,7.8-68.1,0
				c-18.4-7.7-48.5-7.7-66.9,0c-18.8,7.8-49.4,7.8-68.1,0c-18.4-7.7-48.5-7.7-66.9,0c-18.8,7.8-49.3,7.8-68.1,0
				c-18.4-7.7-48.5-7.7-66.9,0c-18.8,7.8-49.4,7.8-68.1,0c-18.4-7.7-48.5-7.7-66.9,0c-18.8,7.8-49.4,7.8-68.1,0
				c-18.5-7.7-48.5-7.7-66.9,0c-18.8,7.8-49.4,7.8-68.2,0l-33.8-14.1l0.6-1.5l33.8,14.1c18.5,7.7,48.5,7.7,66.9,0
				c18.8-7.8,49.4-7.8,68.2,0c18.4,7.7,48.5,7.7,66.9,0c18.8-7.8,49.4-7.8,68.1,0c18.5,7.7,48.5,7.7,66.9,0
				c18.8-7.8,49.4-7.8,68.1,0c18.4,7.7,48.5,7.7,66.9,0c18.8-7.8,49.3-7.8,68.1,0c18.5,7.7,48.5,7.7,66.9,0
				c18.8-7.8,49.4-7.8,68.1,0c18.4,7.7,48.5,7.7,66.9,0c18.8-7.8,49.4-7.8,68.1,0c18.4,7.7,48.5,7.7,66.9,0"/>
		</g>
	</g>
	<g class="st1">
		<g>
			<path class="st2" d="M0.2,576c-18.8,7.8-49.4,7.8-68.1,0c-18.4-7.7-48.5-7.7-66.9,0c-18.8,7.8-49.4,7.8-68.1,0
				c-18.4-7.7-48.5-7.7-66.9,0c-18.8,7.8-49.4,7.8-68.1,0c-18.4-7.7-48.5-7.7-66.9,0c-18.8,7.8-49.3,7.8-68.1,0
				c-18.4-7.7-48.5-7.7-66.9,0c-18.8,7.8-49.4,7.8-68.1,0c-18.4-7.7-48.5-7.7-66.9,0c-18.8,7.8-49.4,7.8-68.1,0
				c-18.4-7.7-48.5-7.7-66.9,0c-18.8,7.8-49.4,7.8-68.2,0l-33.8-14.1l0.6-1.5l33.8,14.1c18.5,7.7,48.5,7.7,66.9,0
				c18.8-7.8,49.4-7.8,68.2,0c18.4,7.7,48.5,7.7,66.9,0c18.8-7.8,49.4-7.8,68.1,0c18.4,7.7,48.5,7.7,66.9,0
				c18.8-7.8,49.4-7.8,68.1,0c18.4,7.7,48.5,7.7,66.9,0c18.8-7.8,49.3-7.8,68.1,0c18.5,7.7,48.5,7.7,66.9,0
				c18.8-7.8,49.4-7.8,68.1,0c18.4,7.7,48.5,7.7,66.9,0c18.8-7.8,49.4-7.8,68.1,0c18.4,7.7,48.5,7.7,66.9,0"/>
		</g>
	</g>
	<g class="st1">
		<g>
			<path class="st2" d="M0.2,549.2c-18.8,7.8-49.4,7.8-68.1,0c-18.4-7.7-48.5-7.7-66.9,0c-18.8,7.8-49.4,7.8-68.1,0
				c-18.4-7.7-48.5-7.7-66.9,0c-18.8,7.8-49.4,7.8-68.1,0c-18.4-7.7-48.5-7.7-66.9,0c-18.8,7.8-49.3,7.8-68.1,0
				c-18.4-7.7-48.5-7.7-66.9,0c-18.8,7.8-49.4,7.8-68.1,0c-18.4-7.7-48.5-7.7-66.9,0c-18.8,7.8-49.4,7.8-68.1,0
				c-18.4-7.7-48.5-7.7-66.9,0c-18.8,7.8-49.4,7.8-68.2,0l-33.8-14.1l0.6-1.5l33.8,14.1c18.5,7.7,48.5,7.7,66.9,0
				c18.8-7.8,49.4-7.8,68.2,0c18.4,7.7,48.5,7.7,66.9,0c18.8-7.8,49.4-7.8,68.1,0c18.4,7.7,48.5,7.7,66.9,0
				c18.8-7.8,49.4-7.8,68.1,0c18.4,7.7,48.5,7.7,66.9,0c18.8-7.8,49.3-7.8,68.1,0c18.5,7.7,48.5,7.7,66.9,0
				c18.8-7.8,49.4-7.8,68.1,0c18.4,7.7,48.5,7.7,66.9,0c18.8-7.8,49.4-7.8,68.1,0c18.4,7.7,48.5,7.7,66.9,0"/>
		</g>
	</g>
	<g class="st1">
		<g>
			<path class="st2" d="M0.2,522.3c-18.8,7.8-49.4,7.8-68.1,0c-18.4-7.7-48.5-7.7-66.9,0c-18.8,7.8-49.4,7.8-68.1,0
				c-18.4-7.7-48.5-7.7-66.9,0c-18.8,7.8-49.4,7.8-68.1,0c-18.4-7.7-48.5-7.7-66.9,0c-18.8,7.8-49.3,7.8-68.1,0
				c-18.4-7.7-48.5-7.7-66.9,0c-18.8,7.8-49.4,7.8-68.1,0c-18.4-7.7-48.5-7.7-66.9,0c-18.8,7.8-49.4,7.8-68.1,0
				c-18.4-7.7-48.5-7.7-66.9,0c-18.8,7.8-49.4,7.8-68.2,0l-33.8-14.1l0.6-1.5l33.8,14.1c18.5,7.7,48.5,7.7,66.9,0
				c18.8-7.8,49.4-7.8,68.2,0c18.4,7.7,48.5,7.7,66.9,0c18.8-7.8,49.4-7.8,68.1,0c18.4,7.7,48.5,7.7,66.9,0
				c18.8-7.8,49.4-7.8,68.1,0c18.4,7.7,48.5,7.7,66.9,0c18.8-7.8,49.3-7.8,68.1,0c18.5,7.7,48.5,7.7,66.9,0
				c18.8-7.8,49.4-7.8,68.1,0c18.4,7.7,48.5,7.7,66.9,0c18.8-7.8,49.4-7.8,68.1,0c18.4,7.7,48.5,7.7,66.9,0"/>
		</g>
	</g>
	<g class="st1">
		<g>
			<path class="st2" d="M0.2,495.5c-18.8,7.8-49.4,7.8-68.1,0c-18.4-7.7-48.5-7.7-66.9,0c-18.8,7.8-49.4,7.8-68.1,0
				c-18.4-7.7-48.5-7.7-66.9,0c-18.8,7.8-49.4,7.8-68.1,0c-18.4-7.7-48.5-7.7-66.9,0c-18.8,7.8-49.3,7.8-68.1,0
				c-18.4-7.7-48.5-7.7-66.9,0c-18.8,7.8-49.4,7.8-68.1,0c-18.4-7.7-48.5-7.7-66.9,0c-18.8,7.8-49.4,7.8-68.1,0
				c-18.4-7.7-48.5-7.7-66.9,0c-18.8,7.8-49.4,7.8-68.2,0l-33.8-14.1l0.6-1.5l33.8,14.1c18.5,7.7,48.5,7.7,66.9,0
				c18.8-7.8,49.4-7.8,68.2,0c18.4,7.7,48.5,7.7,66.9,0c18.8-7.8,49.4-7.8,68.1,0c18.4,7.7,48.5,7.7,66.9,0
				c18.8-7.8,49.4-7.8,68.1,0c18.4,7.7,48.5,7.7,66.9,0c18.8-7.8,49.3-7.8,68.1,0c18.5,7.7,48.5,7.7,66.9,0
				c18.8-7.8,49.4-7.8,68.1,0c18.4,7.7,48.5,7.7,66.9,0c18.8-7.8,49.4-7.8,68.1,0c18.4,7.7,48.5,7.7,66.9,0"/>
		</g>
	</g>
	<g class="st1">
		<g>
			<path class="st2" d="M0.2,468.7c-18.8,7.8-49.4,7.8-68.1,0c-18.4-7.7-48.5-7.7-66.9,0c-18.8,7.8-49.4,7.8-68.1,0
				c-18.4-7.7-48.5-7.7-66.9,0c-18.8,7.8-49.4,7.8-68.1,0c-18.4-7.7-48.5-7.7-66.9,0c-18.8,7.8-49.3,7.8-68.1,0
				c-18.4-7.7-48.5-7.7-66.9,0c-18.8,7.8-49.4,7.8-68.1,0c-18.4-7.7-48.5-7.7-66.9,0c-18.8,7.8-49.4,7.8-68.1,0
				c-18.4-7.7-48.5-7.7-66.9,0c-18.8,7.8-49.4,7.8-68.2,0l-33.8-14.1l0.6-1.5l33.8,14.1c18.5,7.7,48.5,7.7,66.9,0
				c18.8-7.8,49.4-7.8,68.2,0c18.4,7.7,48.5,7.7,66.9,0c18.8-7.8,49.4-7.8,68.1,0c18.4,7.7,48.5,7.7,66.9,0
				c18.8-7.8,49.4-7.8,68.1,0c18.4,7.7,48.5,7.7,66.9,0c18.8-7.8,49.3-7.8,68.1,0c18.5,7.7,48.5,7.7,66.9,0
				c18.8-7.8,49.4-7.8,68.1,0c18.4,7.7,48.5,7.7,66.9,0c18.8-7.8,49.4-7.8,68.1,0c18.4,7.7,48.5,7.7,66.9,0"/>
		</g>
	</g>
	<g class="st1">
		<g>
			<path class="st2" d="M0.2,441.8c-18.8,7.8-49.4,7.8-68.1,0c-18.4-7.7-48.5-7.7-66.9,0c-18.8,7.8-49.4,7.8-68.1,0
				c-18.4-7.7-48.5-7.7-66.9,0c-18.8,7.8-49.4,7.8-68.1,0c-18.4-7.7-48.5-7.7-66.9,0c-18.8,7.8-49.3,7.8-68.1,0
				c-18.4-7.7-48.5-7.7-66.9,0c-18.8,7.8-49.4,7.8-68.1,0c-18.5-7.7-48.5-7.7-66.9,0c-18.8,7.8-49.4,7.8-68.1,0
				c-18.5-7.7-48.5-7.7-66.9,0c-18.8,7.8-49.4,7.8-68.2,0l-33.8-14.1l0.6-1.5l33.8,14.1c18.5,7.7,48.5,7.7,66.9,0
				c18.8-7.8,49.4-7.8,68.2,0c18.4,7.7,48.5,7.7,66.9,0c18.8-7.8,49.4-7.8,68.1,0c18.5,7.7,48.5,7.7,66.9,0
				c18.8-7.8,49.4-7.8,68.1,0c18.4,7.7,48.5,7.7,66.9,0c18.8-7.8,49.3-7.8,68.1,0c18.5,7.7,48.5,7.7,66.9,0
				c18.8-7.8,49.4-7.8,68.1,0c18.4,7.7,48.5,7.7,66.9,0c18.8-7.8,49.4-7.8,68.1,0c18.4,7.7,48.5,7.7,66.9,0"/>
		</g>
	</g>
	<g class="st1">
		<g>
			<path class="st2" d="M0.2,415c-18.8,7.8-49.4,7.8-68.1,0c-18.4-7.7-48.5-7.7-66.9,0c-18.8,7.8-49.4,7.8-68.1,0
				c-18.4-7.7-48.5-7.7-66.9,0c-18.8,7.8-49.4,7.8-68.1,0c-18.4-7.7-48.5-7.7-66.9,0c-18.8,7.8-49.3,7.8-68.1,0
				c-18.4-7.7-48.5-7.7-66.9,0c-18.8,7.8-49.4,7.8-68.1,0c-18.5-7.7-48.5-7.7-66.9,0c-18.8,7.8-49.4,7.8-68.1,0
				c-18.5-7.7-48.5-7.7-66.9,0c-18.8,7.8-49.4,7.8-68.2,0l-33.8-14.1l0.6-1.5l33.8,14.1c18.5,7.7,48.5,7.7,66.9,0
				c18.8-7.8,49.4-7.8,68.2,0c18.4,7.7,48.5,7.7,66.9,0c18.8-7.8,49.4-7.8,68.1,0c18.5,7.7,48.5,7.7,66.9,0
				c18.8-7.8,49.4-7.8,68.1,0c18.4,7.7,48.5,7.7,66.9,0c18.8-7.8,49.3-7.8,68.1,0c18.5,7.7,48.5,7.7,66.9,0
				c18.8-7.8,49.4-7.8,68.1,0c18.4,7.7,48.5,7.7,66.9,0c18.8-7.8,49.4-7.8,68.1,0c18.4,7.7,48.5,7.7,66.9,0"/>
		</g>
	</g>
	<g class="st1">
		<g>
			<path class="st2" d="M0.2,388.2c-18.8,7.8-49.4,7.8-68.1,0c-18.4-7.7-48.5-7.7-66.9,0c-18.8,7.8-49.4,7.8-68.1,0
				c-18.4-7.7-48.5-7.7-66.9,0c-18.8,7.8-49.4,7.8-68.1,0c-18.4-7.7-48.5-7.7-66.9,0c-18.8,7.8-49.3,7.8-68.1,0
				c-18.4-7.7-48.5-7.7-66.9,0c-18.8,7.8-49.4,7.8-68.1,0c-18.5-7.7-48.5-7.7-66.9,0c-18.8,7.8-49.4,7.8-68.1,0
				c-18.5-7.7-48.5-7.7-66.9,0c-18.8,7.8-49.4,7.8-68.2,0l-33.8-14.1l0.6-1.5l33.8,14.1c18.5,7.7,48.5,7.7,66.9,0
				c18.8-7.8,49.4-7.8,68.2,0c18.4,7.7,48.5,7.7,66.9,0c18.8-7.8,49.4-7.8,68.1,0c18.5,7.7,48.5,7.7,66.9,0
				c18.8-7.8,49.4-7.8,68.1,0c18.4,7.7,48.5,7.7,66.9,0c18.8-7.8,49.3-7.8,68.1,0c18.5,7.7,48.5,7.7,66.9,0
				c18.8-7.8,49.4-7.8,68.1,0c18.4,7.7,48.5,7.7,66.9,0c18.8-7.8,49.4-7.8,68.1,0c18.4,7.7,48.5,7.7,66.9,0"/>
		</g>
	</g>
	<g class="st1">
		<g>
			<path class="st2" d="M0.2,361.4c-18.8,7.8-49.4,7.8-68.1,0c-18.4-7.7-48.5-7.7-66.9,0c-18.8,7.8-49.4,7.8-68.1,0
				c-18.4-7.7-48.5-7.7-66.9,0c-18.8,7.8-49.4,7.8-68.1,0c-18.4-7.7-48.5-7.7-66.9,0c-18.8,7.8-49.3,7.8-68.1,0
				c-18.4-7.7-48.5-7.7-66.9,0c-18.8,7.8-49.4,7.8-68.1,0c-18.5-7.7-48.5-7.7-66.9,0c-18.8,7.8-49.4,7.8-68.1,0
				c-18.5-7.7-48.5-7.7-66.9,0c-18.8,7.8-49.4,7.8-68.2,0l-33.8-14.1l0.6-1.5l33.8,14.1c18.5,7.7,48.5,7.7,66.9,0
				c18.8-7.8,49.4-7.8,68.2,0c18.4,7.7,48.5,7.7,66.9,0c18.8-7.8,49.4-7.8,68.1,0c18.5,7.7,48.5,7.7,66.9,0
				c18.8-7.8,49.4-7.8,68.1,0c18.4,7.7,48.5,7.7,66.9,0c18.8-7.8,49.3-7.8,68.1,0c18.5,7.7,48.5,7.7,66.9,0
				c18.8-7.8,49.4-7.8,68.1,0c18.4,7.7,48.5,7.7,66.9,0c18.8-7.8,49.4-7.8,68.1,0c18.4,7.7,48.5,7.7,66.9,0"/>
		</g>
	</g>
	<g class="st1">
		<g>
			<path class="st2" d="M0.2,334.5c-18.8,7.8-49.4,7.8-68.1,0c-18.4-7.7-48.5-7.7-66.9,0c-18.8,7.8-49.4,7.8-68.1,0
				c-18.4-7.7-48.5-7.7-66.9,0c-18.8,7.8-49.4,7.8-68.1,0c-18.4-7.7-48.5-7.7-66.9,0c-18.8,7.8-49.4,7.8-68.1,0
				c-18.4-7.7-48.5-7.7-66.9,0c-18.8,7.8-49.4,7.8-68.1,0c-18.4-7.7-48.5-7.7-66.9,0c-18.8,7.8-49.4,7.8-68.1,0
				c-18.5-7.7-48.5-7.7-66.9,0c-18.8,7.8-49.4,7.8-68.2,0l-33.8-14.1l0.6-1.5l33.8,14.1c18.5,7.7,48.5,7.7,66.9,0
				c18.8-7.8,49.4-7.8,68.2,0c18.4,7.7,48.5,7.7,66.9,0c18.8-7.8,49.4-7.8,68.1,0c18.5,7.7,48.5,7.7,66.9,0
				c18.8-7.8,49.4-7.8,68.1,0c18.4,7.7,48.5,7.7,66.9,0c18.8-7.8,49.3-7.8,68.1,0c18.5,7.7,48.5,7.7,66.9,0
				c18.8-7.8,49.4-7.8,68.1,0c18.4,7.7,48.5,7.7,66.9,0c18.8-7.8,49.4-7.8,68.1,0c18.4,7.7,48.5,7.7,66.9,0"/>
		</g>
	</g>
	<g class="st1">
		<g>
			<path class="st2" d="M0.2,307.7c-18.8,7.8-49.4,7.8-68.1,0c-18.4-7.7-48.5-7.7-66.9,0c-18.8,7.8-49.4,7.8-68.1,0
				c-18.4-7.7-48.5-7.7-66.9,0c-18.8,7.8-49.4,7.8-68.1,0c-18.4-7.7-48.5-7.7-66.9,0c-18.8,7.8-49.4,7.8-68.1,0
				c-18.4-7.7-48.5-7.7-66.9,0c-18.8,7.8-49.4,7.8-68.1,0c-18.4-7.7-48.5-7.7-66.9,0c-18.8,7.8-49.4,7.8-68.1,0
				c-18.5-7.7-48.5-7.7-66.9,0c-18.8,7.8-49.4,7.8-68.2,0l-33.8-14.1l0.6-1.5l33.8,14.1c18.5,7.7,48.5,7.7,66.9,0
				c18.8-7.8,49.4-7.8,68.2,0c18.4,7.7,48.5,7.7,66.9,0c18.8-7.8,49.4-7.8,68.1,0c18.4,7.7,48.5,7.7,66.9,0
				c18.8-7.8,49.4-7.8,68.1,0c18.4,7.7,48.5,7.7,66.9,0c18.8-7.8,49.3-7.8,68.1,0c18.5,7.7,48.5,7.7,66.9,0
				c18.8-7.8,49.4-7.8,68.1,0c18.4,7.7,48.5,7.7,66.9,0c18.8-7.8,49.4-7.8,68.1,0c18.4,7.7,48.5,7.7,66.9,0"/>
		</g>
	</g>
	<g class="st1">
		<g>
			<path class="st2" d="M0.2,280.9c-18.8,7.8-49.4,7.8-68.1,0c-18.4-7.7-48.5-7.7-66.9,0c-18.8,7.8-49.4,7.8-68.1,0
				c-18.4-7.7-48.5-7.7-66.9,0c-18.8,7.8-49.4,7.8-68.1,0c-18.4-7.7-48.5-7.7-66.9,0c-18.8,7.8-49.4,7.8-68.1,0
				c-18.4-7.7-48.5-7.7-66.9,0c-18.8,7.8-49.4,7.8-68.1,0c-18.4-7.7-48.5-7.7-66.9,0c-18.8,7.8-49.4,7.8-68.1,0
				c-18.5-7.7-48.5-7.7-66.9,0c-18.8,7.8-49.4,7.8-68.2,0l-33.8-14.1l0.6-1.5l33.8,14.1c18.5,7.7,48.5,7.7,66.9,0
				c18.8-7.8,49.4-7.8,68.2,0c18.4,7.7,48.5,7.7,66.9,0c18.8-7.8,49.4-7.8,68.1,0c18.4,7.7,48.5,7.7,66.9,0
				c18.8-7.8,49.4-7.8,68.1,0c18.4,7.7,48.5,7.7,66.9,0c18.8-7.8,49.3-7.8,68.1,0c18.5,7.7,48.5,7.7,66.9,0
				c18.8-7.8,49.4-7.8,68.1,0c18.4,7.7,48.5,7.7,66.9,0c18.8-7.8,49.4-7.8,68.1,0c18.4,7.7,48.5,7.7,66.9,0"/>
		</g>
	</g>
	<g class="st1">
		<g>
			<path class="st2" d="M0.2,254c-18.8,7.8-49.4,7.8-68.1,0c-18.4-7.7-48.5-7.7-66.9,0c-18.8,7.8-49.4,7.8-68.1,0
				c-18.4-7.7-48.5-7.7-66.9,0c-18.8,7.8-49.4,7.8-68.1,0c-18.4-7.7-48.5-7.7-66.9,0c-18.8,7.8-49.4,7.8-68.1,0
				c-18.4-7.7-48.5-7.7-66.9,0c-18.8,7.8-49.4,7.8-68.1,0c-18.4-7.7-48.5-7.7-66.9,0c-18.8,7.8-49.4,7.8-68.1,0
				c-18.5-7.7-48.5-7.7-66.9,0c-18.8,7.8-49.4,7.8-68.2,0L-912,240l0.6-1.5l33.8,14.1c18.5,7.7,48.5,7.7,66.9,0
				c18.8-7.8,49.4-7.8,68.2,0c18.4,7.7,48.5,7.7,66.9,0c18.8-7.8,49.4-7.8,68.1,0c18.4,7.7,48.5,7.7,66.9,0
				c18.8-7.8,49.4-7.8,68.1,0c18.4,7.7,48.5,7.7,66.9,0c18.8-7.8,49.3-7.8,68.1,0c18.5,7.7,48.5,7.7,66.9,0
				c18.8-7.8,49.4-7.8,68.1,0c18.4,7.7,48.5,7.7,66.9,0c18.8-7.8,49.4-7.8,68.1,0c18.4,7.7,48.5,7.7,66.9,0"/>
		</g>
	</g>
	<g class="st1">
		<g>
			<path class="st2" d="M0.2,227.2c-18.8,7.8-49.4,7.8-68.1,0c-18.4-7.7-48.5-7.7-66.9,0c-18.8,7.8-49.4,7.8-68.1,0
				c-18.4-7.7-48.5-7.7-66.9,0c-18.8,7.8-49.4,7.8-68.1,0c-18.4-7.7-48.5-7.7-66.9,0c-18.8,7.8-49.4,7.8-68.1,0
				c-18.4-7.7-48.5-7.7-66.9,0c-18.8,7.8-49.4,7.8-68.1,0c-18.4-7.7-48.5-7.7-66.9,0c-18.8,7.8-49.4,7.8-68.1,0
				c-18.5-7.7-48.5-7.7-66.9,0c-18.8,7.8-49.4,7.8-68.2,0l-33.8-14.1l0.6-1.5l33.8,14.1c18.5,7.7,48.5,7.7,66.9,0
				c18.8-7.8,49.4-7.8,68.2,0c18.4,7.7,48.5,7.7,66.9,0c18.8-7.8,49.4-7.8,68.1,0c18.4,7.7,48.5,7.7,66.9,0
				c18.8-7.8,49.4-7.8,68.1,0c18.4,7.7,48.5,7.7,66.9,0c18.8-7.8,49.3-7.8,68.1,0c18.5,7.7,48.5,7.7,66.9,0
				c18.8-7.8,49.4-7.8,68.1,0c18.4,7.7,48.5,7.7,66.9,0c18.8-7.8,49.4-7.8,68.1,0c18.4,7.7,48.5,7.7,66.9,0"/>
		</g>
	</g>
	<g class="st1">
		<g>
			<path class="st2" d="M0.2,200.4c-18.8,7.8-49.4,7.8-68.1,0c-18.4-7.7-48.5-7.7-66.9,0c-18.8,7.8-49.4,7.8-68.1,0
				c-18.4-7.7-48.5-7.7-66.9,0c-18.8,7.8-49.4,7.8-68.1,0c-18.4-7.7-48.5-7.7-66.9,0c-18.8,7.8-49.4,7.8-68.1,0
				c-18.4-7.7-48.5-7.7-66.9,0c-18.8,7.8-49.4,7.8-68.1,0c-18.4-7.7-48.5-7.7-66.9,0c-18.8,7.8-49.4,7.8-68.1,0
				c-18.5-7.7-48.5-7.7-66.9,0c-18.8,7.8-49.4,7.8-68.2,0l-33.8-14.1l0.6-1.5l33.8,14.1c18.5,7.7,48.5,7.7,66.9,0
				c18.8-7.8,49.4-7.8,68.2,0c18.4,7.7,48.5,7.7,66.9,0c18.8-7.8,49.4-7.8,68.1,0c18.5,7.7,48.5,7.7,66.9,0
				c18.8-7.8,49.4-7.8,68.1,0c18.4,7.7,48.5,7.7,66.9,0c18.8-7.8,49.3-7.8,68.1,0c18.5,7.7,48.5,7.7,66.9,0
				c18.8-7.8,49.4-7.8,68.1,0c18.4,7.7,48.5,7.7,66.9,0c18.8-7.8,49.4-7.8,68.1,0c18.4,7.7,48.5,7.7,66.9,0"/>
		</g>
	</g>
	<g class="st1">
		<g>
			<path class="st2" d="M0.2,173.5c-18.8,7.8-49.4,7.8-68.1,0c-18.4-7.7-48.5-7.7-66.9,0c-18.8,7.8-49.4,7.8-68.1,0
				c-18.4-7.7-48.5-7.7-66.9,0c-18.8,7.8-49.4,7.8-68.1,0c-18.5-7.7-48.5-7.7-66.9,0c-18.8,7.8-49.3,7.8-68.1,0
				c-18.4-7.7-48.5-7.7-66.9,0c-18.8,7.8-49.4,7.8-68.1,0c-18.5-7.7-48.5-7.7-66.9,0c-18.8,7.8-49.4,7.8-68.1,0
				c-18.4-7.7-48.5-7.7-66.9,0c-18.8,7.8-49.4,7.8-68.2,0l-33.8-14.1l0.6-1.5l33.8,14.1c18.5,7.7,48.5,7.7,66.9,0
				c18.8-7.8,49.4-7.8,68.2,0c18.4,7.7,48.5,7.7,66.9,0c18.8-7.8,49.4-7.8,68.1,0c18.5,7.7,48.5,7.7,66.9,0
				c18.8-7.8,49.4-7.8,68.1,0c18.4,7.7,48.5,7.7,66.9,0c18.8-7.8,49.4-7.8,68.1,0c18.4,7.7,48.5,7.7,66.9,0
				c18.8-7.8,49.4-7.8,68.1,0c18.4,7.7,48.5,7.7,66.9,0c18.8-7.8,49.4-7.8,68.1,0c18.4,7.7,48.5,7.7,66.9,0"/>
		</g>
	</g>
	<g class="st1">
		<g>
			<path class="st2" d="M0.2,146.7c-18.8,7.8-49.4,7.8-68.1,0c-18.4-7.7-48.5-7.7-66.9,0c-18.8,7.8-49.4,7.8-68.1,0
				c-18.4-7.7-48.5-7.7-66.9,0c-18.8,7.8-49.4,7.8-68.1,0c-18.5-7.7-48.5-7.7-66.9,0c-18.8,7.8-49.3,7.8-68.1,0
				c-18.4-7.7-48.5-7.7-66.9,0c-18.8,7.8-49.4,7.8-68.1,0c-18.5-7.7-48.5-7.7-66.9,0c-18.8,7.8-49.4,7.8-68.1,0
				c-18.4-7.7-48.5-7.7-66.9,0c-18.8,7.8-49.4,7.8-68.2,0l-33.8-14.1l0.6-1.5l33.8,14.1c18.5,7.7,48.5,7.7,66.9,0
				c18.8-7.8,49.4-7.8,68.2,0c18.4,7.7,48.5,7.7,66.9,0c18.8-7.8,49.4-7.8,68.1,0c18.5,7.7,48.5,7.7,66.9,0
				c18.8-7.8,49.4-7.8,68.1,0c18.4,7.7,48.5,7.7,66.9,0c18.8-7.8,49.4-7.8,68.1,0c18.4,7.7,48.5,7.7,66.9,0
				c18.8-7.8,49.4-7.8,68.1,0c18.4,7.7,48.5,7.7,66.9,0c18.8-7.8,49.4-7.8,68.1,0c18.4,7.7,48.5,7.7,66.9,0"/>
		</g>
	</g>
	<g class="st1">
		<g>
			<path class="st2" d="M0.2,119.9c-18.8,7.8-49.4,7.8-68.1,0c-18.4-7.7-48.5-7.7-66.9,0c-18.8,7.8-49.4,7.8-68.1,0
				c-18.4-7.7-48.5-7.7-66.9,0c-18.8,7.8-49.4,7.8-68.1,0c-18.5-7.7-48.5-7.7-66.9,0c-18.8,7.8-49.3,7.8-68.1,0
				c-18.4-7.7-48.5-7.7-66.9,0c-18.8,7.8-49.4,7.8-68.1,0c-18.5-7.7-48.5-7.7-66.9,0c-18.8,7.8-49.4,7.8-68.1,0
				c-18.4-7.7-48.5-7.7-66.9,0c-18.8,7.8-49.4,7.8-68.2,0l-33.8-14.1l0.6-1.5l33.8,14.1c18.5,7.7,48.5,7.7,66.9,0
				c18.8-7.8,49.4-7.8,68.2,0c18.4,7.7,48.5,7.7,66.9,0c18.8-7.8,49.4-7.8,68.1,0c18.5,7.7,48.5,7.7,66.9,0
				c18.8-7.8,49.4-7.8,68.1,0c18.4,7.7,48.5,7.7,66.9,0c18.8-7.8,49.4-7.8,68.1,0c18.4,7.7,48.5,7.7,66.9,0
				c18.8-7.8,49.4-7.8,68.1,0c18.4,7.7,48.5,7.7,66.9,0c18.8-7.8,49.4-7.8,68.1,0c18.4,7.7,48.5,7.7,66.9,0"/>
		</g>
	</g>
	<g class="st1">
		<g>
			<path class="st2" d="M0.2,93c-18.8,7.8-49.4,7.8-68.1,0c-18.4-7.7-48.5-7.7-66.9,0c-18.8,7.8-49.4,7.8-68.1,0
				c-18.4-7.7-48.5-7.7-66.9,0c-18.8,7.8-49.4,7.8-68.1,0c-18.5-7.7-48.5-7.7-66.9,0c-18.8,7.8-49.3,7.8-68.1,0
				c-18.4-7.7-48.5-7.7-66.9,0c-18.8,7.8-49.4,7.8-68.1,0c-18.5-7.7-48.5-7.7-66.9,0c-18.8,7.8-49.4,7.8-68.1,0
				c-18.4-7.7-48.5-7.7-66.9,0c-18.8,7.8-49.4,7.8-68.2,0L-912,79l0.6-1.5l33.8,14.1c18.5,7.7,48.5,7.7,66.9,0
				c18.8-7.8,49.4-7.8,68.2,0c18.4,7.7,48.5,7.7,66.9,0c18.8-7.8,49.4-7.8,68.1,0c18.5,7.7,48.5,7.7,66.9,0
				c18.8-7.8,49.4-7.8,68.1,0c18.4,7.7,48.5,7.7,66.9,0c18.8-7.8,49.4-7.8,68.1,0c18.4,7.7,48.5,7.7,66.9,0
				c18.8-7.8,49.4-7.8,68.1,0c18.4,7.7,48.5,7.7,66.9,0c18.8-7.8,49.4-7.8,68.1,0c18.4,7.7,48.5,7.7,66.9,0"/>
		</g>
	</g>
	<g class="st1">
		<g>
			<path class="st2" d="M0.2,66.2c-18.8,7.8-49.4,7.8-68.1,0c-18.4-7.7-48.5-7.7-66.9,0c-18.8,7.8-49.4,7.8-68.1,0
				c-18.4-7.7-48.5-7.7-66.9,0c-18.8,7.8-49.4,7.8-68.1,0c-18.5-7.7-48.5-7.7-66.9,0c-18.8,7.8-49.4,7.8-68.1,0
				c-18.4-7.7-48.5-7.7-66.9,0c-18.8,7.8-49.4,7.8-68.1,0c-18.4-7.7-48.5-7.7-66.9,0c-18.8,7.8-49.4,7.8-68.1,0
				c-18.4-7.7-48.5-7.7-66.9,0c-18.8,7.8-49.4,7.8-68.2,0L-912,52.1l0.6-1.5l33.8,14.1c18.5,7.7,48.5,7.7,66.9,0
				c18.8-7.8,49.4-7.8,68.2,0c18.4,7.7,48.5,7.7,66.9,0c18.8-7.8,49.4-7.8,68.1,0c18.5,7.7,48.5,7.7,66.9,0
				c18.8-7.8,49.4-7.8,68.1,0c18.4,7.7,48.5,7.7,66.9,0c18.8-7.8,49.4-7.8,68.1,0c18.4,7.7,48.5,7.7,66.9,0
				c18.8-7.8,49.4-7.8,68.1,0c18.4,7.7,48.5,7.7,66.9,0c18.8-7.8,49.4-7.8,68.1,0c18.4,7.7,48.5,7.7,66.9,0"/>
		</g>
	</g>
	<g class="st1">
		<g>
			<path class="st2" d="M0.2,39.4c-18.8,7.8-49.4,7.8-68.1,0c-18.4-7.7-48.5-7.7-66.9,0c-18.8,7.8-49.4,7.8-68.1,0
				c-18.4-7.7-48.5-7.7-66.9,0c-18.8,7.8-49.4,7.8-68.1,0c-18.5-7.7-48.5-7.7-66.9,0c-18.8,7.8-49.4,7.8-68.1,0
				c-18.4-7.7-48.5-7.7-66.9,0c-18.8,7.8-49.4,7.8-68.1,0c-18.4-7.7-48.5-7.7-66.9,0c-18.8,7.8-49.4,7.8-68.1,0
				c-18.4-7.7-48.5-7.7-66.9,0c-18.8,7.8-49.4,7.8-68.2,0L-912,25.3l0.6-1.5l33.8,14.1c18.5,7.7,48.5,7.7,66.9,0
				c18.8-7.8,49.4-7.8,68.2,0c18.4,7.7,48.5,7.7,66.9,0c18.8-7.8,49.4-7.8,68.1,0c18.4,7.7,48.5,7.7,66.9,0
				c18.8-7.8,49.4-7.8,68.1,0c18.4,7.7,48.5,7.7,66.9,0c18.8-7.8,49.4-7.8,68.1,0c18.5,7.7,48.5,7.7,66.9,0
				c18.8-7.8,49.4-7.8,68.1,0c18.4,7.7,48.5,7.7,66.9,0c18.8-7.8,49.4-7.8,68.1,0c18.4,7.7,48.5,7.7,66.9,0"/>
		</g>
	</g>
	<g class="st1">
		<g>
			<path class="st2" d="M0.2,12.5c-18.8,7.8-49.4,7.8-68.1,0c-18.4-7.7-48.5-7.7-66.9,0c-18.8,7.8-49.4,7.8-68.1,0
				c-18.4-7.7-48.5-7.7-66.9,0c-18.8,7.8-49.4,7.8-68.1,0c-18.5-7.7-48.5-7.7-66.9,0c-18.8,7.8-49.4,7.8-68.1,0
				c-18.4-7.7-48.5-7.7-66.9,0c-18.8,7.8-49.4,7.8-68.1,0c-18.4-7.7-48.5-7.7-66.9,0c-18.8,7.8-49.4,7.8-68.1,0
				c-18.4-7.7-48.5-7.7-66.9,0c-18.8,7.8-49.4,7.8-68.2,0L-912-1.5l0.6-1.5l33.8,14.1c18.5,7.7,48.5,7.7,66.9,0
				c18.8-7.8,49.4-7.8,68.2,0c18.4,7.7,48.5,7.7,66.9,0c18.8-7.8,49.4-7.8,68.1,0c18.4,7.7,48.5,7.7,66.9,0
				c18.8-7.8,49.4-7.8,68.1,0c18.4,7.7,48.5,7.7,66.9,0c18.8-7.8,49.4-7.8,68.1,0c18.5,7.7,48.5,7.7,66.9,0
				c18.8-7.8,49.4-7.8,68.1,0c18.4,7.7,48.5,7.7,66.9,0c18.8-7.8,49.4-7.8,68.1,0c18.4,7.7,48.5,7.7,66.9,0"/>
		</g>
	</g>
</g>
<g>
	<g>
		<g>
			<path class="st3" d="M811.3,1247.3c-18.8,7.8-49.4,7.8-68.1,0c-18.4-7.7-48.5-7.7-66.9,0c-18.8,7.8-49.4,7.8-68.1,0
				c-18.4-7.7-48.5-7.7-66.9,0c-18.8,7.8-49.4,7.8-68.1,0c-18.4-7.7-48.5-7.7-66.9,0c-18.8,7.8-49.3,7.8-68.1,0
				c-18.4-7.7-48.5-7.7-66.9,0c-18.8,7.8-49.4,7.8-68.1,0c-18.5-7.7-48.5-7.7-66.9,0c-18.8,7.8-49.4,7.8-68.1,0
				c-18.5-7.7-48.5-7.7-66.9,0"/>
			<path class="st3" d="M0.4,1245.8c18.8-7.8,49.4-7.8,68.2,0c18.4,7.7,48.5,7.7,66.9,0c18.8-7.8,49.4-7.8,68.1,0
				c18.5,7.7,48.5,7.7,66.9,0c18.8-7.8,49.4-7.8,68.1,0c18.4,7.7,48.5,7.7,66.9,0c18.8-7.8,49.3-7.8,68.1,0
				c18.5,7.7,48.5,7.7,66.9,0c18.8-7.8,49.4-7.8,68.1,0c18.4,7.7,48.5,7.7,66.9,0c18.8-7.8,49.4-7.8,68.1,0
				c18.4,7.7,48.5,7.7,66.9,0"/>
		</g>
	</g>
	<g>
		<g>
			<path class="st3" d="M811.3,1220.4c-18.8,7.8-49.4,7.8-68.1,0c-18.4-7.7-48.5-7.7-66.9,0c-18.8,7.8-49.4,7.8-68.1,0
				c-18.4-7.7-48.5-7.7-66.9,0c-18.8,7.8-49.4,7.8-68.1,0c-18.4-7.7-48.5-7.7-66.9,0c-18.8,7.8-49.3,7.8-68.1,0
				c-18.4-7.7-48.5-7.7-66.9,0c-18.8,7.8-49.4,7.8-68.1,0c-18.5-7.7-48.5-7.7-66.9,0c-18.8,7.8-49.4,7.8-68.1,0
				c-18.5-7.7-48.5-7.7-66.9,0"/>
			<path class="st3" d="M0.4,1219c18.8-7.8,49.4-7.8,68.2,0c18.4,7.7,48.5,7.7,66.9,0c18.8-7.8,49.4-7.8,68.1,0
				c18.5,7.7,48.5,7.7,66.9,0c18.8-7.8,49.4-7.8,68.1,0c18.4,7.7,48.5,7.7,66.9,0c18.8-7.8,49.3-7.8,68.1,0
				c18.5,7.7,48.5,7.7,66.9,0c18.8-7.8,49.4-7.8,68.1,0c18.4,7.7,48.5,7.7,66.9,0c18.8-7.8,49.4-7.8,68.1,0
				c18.4,7.7,48.5,7.7,66.9,0"/>
		</g>
	</g>
	<g>
		<g>
			<path class="st3" d="M811.3,1193.6c-18.8,7.8-49.4,7.8-68.1,0c-18.4-7.7-48.5-7.7-66.9,0c-18.8,7.8-49.4,7.8-68.1,0
				c-18.4-7.7-48.5-7.7-66.9,0c-18.8,7.8-49.4,7.8-68.1,0c-18.4-7.7-48.5-7.7-66.9,0c-18.8,7.8-49.3,7.8-68.1,0
				c-18.4-7.7-48.5-7.7-66.9,0c-18.8,7.8-49.4,7.8-68.1,0c-18.5-7.7-48.5-7.7-66.9,0c-18.8,7.8-49.4,7.8-68.1,0
				c-18.5-7.7-48.5-7.7-66.9,0"/>
			<path class="st3" d="M0.4,1192.1c18.8-7.8,49.4-7.8,68.2,0c18.4,7.7,48.5,7.7,66.9,0c18.8-7.8,49.4-7.8,68.1,0
				c18.5,7.7,48.5,7.7,66.9,0c18.8-7.8,49.4-7.8,68.1,0c18.4,7.7,48.5,7.7,66.9,0c18.8-7.8,49.3-7.8,68.1,0
				c18.5,7.7,48.5,7.7,66.9,0c18.8-7.8,49.4-7.8,68.1,0c18.4,7.7,48.5,7.7,66.9,0c18.8-7.8,49.4-7.8,68.1,0
				c18.4,7.7,48.5,7.7,66.9,0"/>
		</g>
	</g>
	<g>
		<g>
			<path class="st3" d="M811.3,1166.8c-18.8,7.8-49.4,7.8-68.1,0c-18.4-7.7-48.5-7.7-66.9,0c-18.8,7.8-49.4,7.8-68.1,0
				c-18.4-7.7-48.5-7.7-66.9,0c-18.8,7.8-49.4,7.8-68.1,0c-18.4-7.7-48.5-7.7-66.9,0c-18.8,7.8-49.3,7.8-68.1,0
				c-18.4-7.7-48.5-7.7-66.9,0c-18.8,7.8-49.4,7.8-68.1,0c-18.5-7.7-48.5-7.7-66.9,0c-18.8,7.8-49.4,7.8-68.1,0
				c-18.5-7.7-48.5-7.7-66.9,0"/>
			<path class="st3" d="M0.4,1165.3c18.8-7.8,49.4-7.8,68.2,0c18.4,7.7,48.5,7.7,66.9,0c18.8-7.8,49.4-7.8,68.1,0
				c18.5,7.7,48.5,7.7,66.9,0c18.8-7.8,49.4-7.8,68.1,0c18.4,7.7,48.5,7.7,66.9,0c18.8-7.8,49.3-7.8,68.1,0
				c18.5,7.7,48.5,7.7,66.9,0c18.8-7.8,49.4-7.8,68.1,0c18.4,7.7,48.5,7.7,66.9,0c18.8-7.8,49.4-7.8,68.1,0
				c18.4,7.7,48.5,7.7,66.9,0"/>
		</g>
	</g>
	<g>
		<g>
			<path class="st3" d="M811.3,1139.9c-18.8,7.8-49.4,7.8-68.1,0c-18.4-7.7-48.5-7.7-66.9,0c-18.8,7.8-49.4,7.8-68.1,0
				c-18.4-7.7-48.5-7.7-66.9,0c-18.8,7.8-49.4,7.8-68.1,0c-18.4-7.7-48.5-7.7-66.9,0c-18.8,7.8-49.3,7.8-68.1,0
				c-18.4-7.7-48.5-7.7-66.9,0c-18.8,7.8-49.4,7.8-68.1,0c-18.4-7.7-48.5-7.7-66.9,0c-18.8,7.8-49.4,7.8-68.1,0
				c-18.5-7.7-48.5-7.7-66.9,0"/>
			<path class="st3" d="M0.4,1138.5c18.8-7.8,49.4-7.8,68.2,0c18.4,7.7,48.5,7.7,66.9,0c18.8-7.8,49.4-7.8,68.1,0
				c18.5,7.7,48.5,7.7,66.9,0c18.8-7.8,49.4-7.8,68.1,0c18.4,7.7,48.5,7.7,66.9,0c18.8-7.8,49.3-7.8,68.1,0
				c18.5,7.7,48.5,7.7,66.9,0c18.8-7.8,49.4-7.8,68.1,0c18.4,7.7,48.5,7.7,66.9,0c18.8-7.8,49.4-7.8,68.1,0
				c18.4,7.7,48.5,7.7,66.9,0"/>
		</g>
	</g>
	<g>
		<g>
			<path class="st3" d="M811.3,1113.1c-18.8,7.8-49.4,7.8-68.1,0c-18.4-7.7-48.5-7.7-66.9,0c-18.8,7.8-49.4,7.8-68.1,0
				c-18.4-7.7-48.5-7.7-66.9,0c-18.8,7.8-49.4,7.8-68.1,0c-18.4-7.7-48.5-7.7-66.9,0c-18.8,7.8-49.3,7.8-68.1,0
				c-18.4-7.7-48.5-7.7-66.9,0c-18.8,7.8-49.4,7.8-68.1,0c-18.4-7.7-48.5-7.7-66.9,0c-18.8,7.8-49.4,7.8-68.1,0
				c-18.4-7.7-48.5-7.7-66.9,0"/>
			<path class="st3" d="M0.4,1111.6c18.8-7.8,49.4-7.8,68.2,0c18.4,7.7,48.5,7.7,66.9,0c18.8-7.8,49.4-7.8,68.1,0
				c18.4,7.7,48.5,7.7,66.9,0c18.8-7.8,49.4-7.8,68.1,0c18.4,7.7,48.5,7.7,66.9,0c18.8-7.8,49.3-7.8,68.1,0
				c18.5,7.7,48.5,7.7,66.9,0c18.8-7.8,49.4-7.8,68.1,0c18.4,7.7,48.5,7.7,66.9,0c18.8-7.8,49.4-7.8,68.1,0
				c18.4,7.7,48.5,7.7,66.9,0"/>
		</g>
	</g>
	<g>
		<g>
			<path class="st3" d="M811.3,1086.3c-18.8,7.8-49.4,7.8-68.1,0c-18.4-7.7-48.5-7.7-66.9,0c-18.8,7.8-49.4,7.8-68.1,0
				c-18.4-7.7-48.5-7.7-66.9,0c-18.8,7.8-49.4,7.8-68.1,0c-18.4-7.7-48.5-7.7-66.9,0c-18.8,7.8-49.3,7.8-68.1,0
				c-18.4-7.7-48.5-7.7-66.9,0c-18.8,7.8-49.4,7.8-68.1,0c-18.4-7.7-48.5-7.7-66.9,0c-18.8,7.8-49.4,7.8-68.1,0
				c-18.4-7.7-48.5-7.7-66.9,0"/>
			<path class="st3" d="M0.4,1084.8c18.8-7.8,49.4-7.8,68.2,0c18.4,7.7,48.5,7.7,66.9,0c18.8-7.8,49.4-7.8,68.1,0
				c18.4,7.7,48.5,7.7,66.9,0c18.8-7.8,49.4-7.8,68.1,0c18.4,7.7,48.5,7.7,66.9,0c18.8-7.8,49.3-7.8,68.1,0
				c18.5,7.7,48.5,7.7,66.9,0c18.8-7.8,49.4-7.8,68.1,0c18.4,7.7,48.5,7.7,66.9,0c18.8-7.8,49.4-7.8,68.1,0
				c18.4,7.7,48.5,7.7,66.9,0"/>
		</g>
	</g>
	<g>
		<g>
			<path class="st3" d="M811.3,1059.4c-18.8,7.8-49.4,7.8-68.1,0c-18.4-7.7-48.5-7.7-66.9,0c-18.8,7.8-49.4,7.8-68.1,0
				c-18.4-7.7-48.5-7.7-66.9,0c-18.8,7.8-49.4,7.8-68.1,0c-18.4-7.7-48.5-7.7-66.9,0c-18.8,7.8-49.3,7.8-68.1,0
				c-18.4-7.7-48.5-7.7-66.9,0c-18.8,7.8-49.4,7.8-68.1,0c-18.4-7.7-48.5-7.7-66.9,0c-18.8,7.8-49.4,7.8-68.1,0
				c-18.4-7.7-48.5-7.7-66.9,0"/>
			<path class="st3" d="M0.4,1058c18.8-7.8,49.4-7.8,68.2,0c18.4,7.7,48.5,7.7,66.9,0c18.8-7.8,49.4-7.8,68.1,0
				c18.4,7.7,48.5,7.7,66.9,0c18.8-7.8,49.4-7.8,68.1,0c18.4,7.7,48.5,7.7,66.9,0c18.8-7.8,49.3-7.8,68.1,0
				c18.5,7.7,48.5,7.7,66.9,0c18.8-7.8,49.4-7.8,68.1,0c18.4,7.7,48.5,7.7,66.9,0c18.8-7.8,49.4-7.8,68.1,0
				c18.4,7.7,48.5,7.7,66.9,0"/>
		</g>
	</g>
	<g>
		<g>
			<path class="st3" d="M811.3,1032.6c-18.8,7.8-49.4,7.8-68.1,0c-18.4-7.7-48.5-7.7-66.9,0c-18.8,7.8-49.4,7.8-68.1,0
				c-18.4-7.7-48.5-7.7-66.9,0c-18.8,7.8-49.4,7.8-68.1,0c-18.4-7.7-48.5-7.7-66.9,0c-18.8,7.8-49.3,7.8-68.1,0
				c-18.4-7.7-48.5-7.7-66.9,0c-18.8,7.8-49.4,7.8-68.1,0c-18.4-7.7-48.5-7.7-66.9,0c-18.8,7.8-49.4,7.8-68.1,0
				c-18.4-7.7-48.5-7.7-66.9,0"/>
			<path class="st3" d="M0.4,1031.1c18.8-7.8,49.4-7.8,68.2,0c18.4,7.7,48.5,7.7,66.9,0c18.8-7.8,49.4-7.8,68.1,0
				c18.4,7.7,48.5,7.7,66.9,0c18.8-7.8,49.4-7.8,68.1,0c18.4,7.7,48.5,7.7,66.9,0c18.8-7.8,49.3-7.8,68.1,0
				c18.5,7.7,48.5,7.7,66.9,0c18.8-7.8,49.4-7.8,68.1,0c18.4,7.7,48.5,7.7,66.9,0c18.8-7.8,49.4-7.8,68.1,0
				c18.4,7.7,48.5,7.7,66.9,0"/>
		</g>
	</g>
	<g>
		<g>
			<path class="st3" d="M811.3,1005.8c-18.8,7.8-49.4,7.8-68.1,0c-18.4-7.7-48.5-7.7-66.9,0c-18.8,7.8-49.4,7.8-68.1,0
				c-18.4-7.7-48.5-7.7-66.9,0c-18.8,7.8-49.4,7.8-68.1,0c-18.4-7.7-48.5-7.7-66.9,0c-18.8,7.8-49.3,7.8-68.1,0
				c-18.4-7.7-48.5-7.7-66.9,0c-18.8,7.8-49.4,7.8-68.1,0c-18.5-7.7-48.5-7.7-66.9,0c-18.8,7.8-49.4,7.8-68.1,0
				c-18.5-7.7-48.5-7.7-66.9,0"/>
			<path class="st3" d="M0.4,1004.3c18.8-7.8,49.4-7.8,68.2,0c18.4,7.7,48.5,7.7,66.9,0c18.8-7.8,49.4-7.8,68.1,0
				c18.5,7.7,48.5,7.7,66.9,0c18.8-7.8,49.4-7.8,68.1,0c18.4,7.7,48.5,7.7,66.9,0c18.8-7.8,49.3-7.8,68.1,0
				c18.5,7.7,48.5,7.7,66.9,0c18.8-7.8,49.4-7.8,68.1,0c18.4,7.7,48.5,7.7,66.9,0c18.8-7.8,49.4-7.8,68.1,0
				c18.4,7.7,48.5,7.7,66.9,0"/>
		</g>
	</g>
	<g>
		<g>
			<path class="st3" d="M811.3,979c-18.8,7.8-49.4,7.8-68.1,0c-18.4-7.7-48.5-7.7-66.9,0c-18.8,7.8-49.4,7.8-68.1,0
				c-18.4-7.7-48.5-7.7-66.9,0c-18.8,7.8-49.4,7.8-68.1,0c-18.4-7.7-48.5-7.7-66.9,0c-18.8,7.8-49.3,7.8-68.1,0
				c-18.4-7.7-48.5-7.7-66.9,0c-18.8,7.8-49.4,7.8-68.1,0c-18.5-7.7-48.5-7.7-66.9,0c-18.8,7.8-49.4,7.8-68.1,0
				c-18.5-7.7-48.5-7.7-66.9,0"/>
			<path class="st3" d="M0.4,977.5c18.8-7.8,49.4-7.8,68.2,0c18.4,7.7,48.5,7.7,66.9,0c18.8-7.8,49.4-7.8,68.1,0
				c18.5,7.7,48.5,7.7,66.9,0c18.8-7.8,49.4-7.8,68.1,0c18.4,7.7,48.5,7.7,66.9,0c18.8-7.8,49.3-7.8,68.1,0
				c18.5,7.7,48.5,7.7,66.9,0c18.8-7.8,49.4-7.8,68.1,0c18.4,7.7,48.5,7.7,66.9,0c18.8-7.8,49.4-7.8,68.1,0
				c18.4,7.7,48.5,7.7,66.9,0"/>
		</g>
	</g>
	<g>
		<g>
			<path class="st3" d="M811.3,952.1c-18.8,7.8-49.4,7.8-68.1,0c-18.4-7.7-48.5-7.7-66.9,0c-18.8,7.8-49.4,7.8-68.1,0
				c-18.4-7.7-48.5-7.7-66.9,0c-18.8,7.8-49.4,7.8-68.1,0c-18.4-7.7-48.5-7.7-66.9,0c-18.8,7.8-49.3,7.8-68.1,0
				c-18.4-7.7-48.5-7.7-66.9,0c-18.8,7.8-49.4,7.8-68.1,0c-18.5-7.7-48.5-7.7-66.9,0c-18.8,7.8-49.4,7.8-68.1,0
				c-18.5-7.7-48.5-7.7-66.9,0"/>
			<path class="st3" d="M0.4,950.6c18.8-7.8,49.4-7.8,68.2,0c18.4,7.7,48.5,7.7,66.9,0c18.8-7.8,49.4-7.8,68.1,0
				c18.5,7.7,48.5,7.7,66.9,0c18.8-7.8,49.4-7.8,68.1,0c18.4,7.7,48.5,7.7,66.9,0c18.8-7.8,49.3-7.8,68.1,0
				c18.5,7.7,48.5,7.7,66.9,0c18.8-7.8,49.4-7.8,68.1,0c18.4,7.7,48.5,7.7,66.9,0c18.8-7.8,49.4-7.8,68.1,0
				c18.4,7.7,48.5,7.7,66.9,0"/>
		</g>
	</g>
	<g>
		<g>
			<path class="st3" d="M811.3,925.3c-18.8,7.8-49.4,7.8-68.1,0c-18.4-7.7-48.5-7.7-66.9,0c-18.8,7.8-49.4,7.8-68.1,0
				c-18.4-7.7-48.5-7.7-66.9,0c-18.8,7.8-49.4,7.8-68.1,0c-18.4-7.7-48.5-7.7-66.9,0c-18.8,7.8-49.3,7.8-68.1,0
				c-18.4-7.7-48.5-7.7-66.9,0c-18.8,7.8-49.4,7.8-68.1,0c-18.5-7.7-48.5-7.7-66.9,0c-18.8,7.8-49.4,7.8-68.1,0
				c-18.5-7.7-48.5-7.7-66.9,0"/>
			<path class="st3" d="M0.4,923.8c18.8-7.8,49.4-7.8,68.2,0c18.4,7.7,48.5,7.7,66.9,0c18.8-7.8,49.4-7.8,68.1,0
				c18.5,7.7,48.5,7.7,66.9,0c18.8-7.8,49.4-7.8,68.1,0c18.4,7.7,48.5,7.7,66.9,0c18.8-7.8,49.3-7.8,68.1,0
				c18.5,7.7,48.5,7.7,66.9,0c18.8-7.8,49.4-7.8,68.1,0c18.4,7.7,48.5,7.7,66.9,0c18.8-7.8,49.4-7.8,68.1,0
				c18.4,7.7,48.5,7.7,66.9,0"/>
		</g>
	</g>
	<g>
		<g>
			<path class="st3" d="M811.3,898.5c-18.8,7.8-49.4,7.8-68.1,0c-18.4-7.7-48.5-7.7-66.9,0c-18.8,7.8-49.4,7.8-68.1,0
				c-18.4-7.7-48.5-7.7-66.9,0c-18.8,7.8-49.4,7.8-68.1,0c-18.4-7.7-48.5-7.7-66.9,0c-18.8,7.8-49.3,7.8-68.1,0
				c-18.4-7.7-48.5-7.7-66.9,0c-18.8,7.8-49.4,7.8-68.1,0c-18.5-7.7-48.5-7.7-66.9,0c-18.8,7.8-49.4,7.8-68.1,0
				c-18.5-7.7-48.5-7.7-66.9,0"/>
			<path class="st3" d="M0.4,897c18.8-7.8,49.4-7.8,68.2,0c18.4,7.7,48.5,7.7,66.9,0c18.8-7.8,49.4-7.8,68.1,0
				c18.5,7.7,48.5,7.7,66.9,0c18.8-7.8,49.4-7.8,68.1,0c18.4,7.7,48.5,7.7,66.9,0c18.8-7.8,49.3-7.8,68.1,0
				c18.5,7.7,48.5,7.7,66.9,0c18.8-7.8,49.4-7.8,68.1,0c18.4,7.7,48.5,7.7,66.9,0c18.8-7.8,49.4-7.8,68.1,0
				c18.4,7.7,48.5,7.7,66.9,0"/>
		</g>
	</g>
	<g>
		<g>
			<path class="st3" d="M811.3,871.6c-18.8,7.8-49.4,7.8-68.1,0c-18.4-7.7-48.5-7.7-66.9,0c-18.8,7.8-49.4,7.8-68.1,0
				c-18.4-7.7-48.5-7.7-66.9,0c-18.8,7.8-49.4,7.8-68.1,0c-18.4-7.7-48.5-7.7-66.9,0c-18.8,7.8-49.3,7.8-68.1,0
				c-18.4-7.7-48.5-7.7-66.9,0c-18.8,7.8-49.4,7.8-68.1,0c-18.4-7.7-48.5-7.7-66.9,0c-18.8,7.8-49.4,7.8-68.1,0
				c-18.5-7.7-48.5-7.7-66.9,0"/>
			<path class="st3" d="M0.4,870.1c18.8-7.8,49.4-7.8,68.2,0c18.4,7.7,48.5,7.7,66.9,0c18.8-7.8,49.4-7.8,68.1,0
				c18.5,7.7,48.5,7.7,66.9,0c18.8-7.8,49.4-7.8,68.1,0c18.4,7.7,48.5,7.7,66.9,0c18.8-7.8,49.3-7.8,68.1,0
				c18.5,7.7,48.5,7.7,66.9,0c18.8-7.8,49.4-7.8,68.1,0c18.4,7.7,48.5,7.7,66.9,0c18.8-7.8,49.4-7.8,68.1,0
				c18.4,7.7,48.5,7.7,66.9,0"/>
		</g>
	</g>
	<g>
		<g>
			<path class="st3" d="M811.3,844.8c-18.8,7.8-49.4,7.8-68.1,0c-18.4-7.7-48.5-7.7-66.9,0c-18.8,7.8-49.4,7.8-68.1,0
				c-18.4-7.7-48.5-7.7-66.9,0c-18.8,7.8-49.4,7.8-68.1,0c-18.4-7.7-48.5-7.7-66.9,0c-18.8,7.8-49.3,7.8-68.1,0
				c-18.4-7.7-48.5-7.7-66.9,0c-18.8,7.8-49.4,7.8-68.1,0c-18.4-7.7-48.5-7.7-66.9,0c-18.8,7.8-49.4,7.8-68.1,0
				c-18.4-7.7-48.5-7.7-66.9,0"/>
			<path class="st3" d="M0.4,843.3c18.8-7.8,49.4-7.8,68.2,0c18.4,7.7,48.5,7.7,66.9,0c18.8-7.8,49.4-7.8,68.1,0
				c18.4,7.7,48.5,7.7,66.9,0c18.8-7.8,49.4-7.8,68.1,0c18.4,7.7,48.5,7.7,66.9,0c18.8-7.8,49.3-7.8,68.1,0
				c18.5,7.7,48.5,7.7,66.9,0c18.8-7.8,49.4-7.8,68.1,0c18.4,7.7,48.5,7.7,66.9,0c18.8-7.8,49.4-7.8,68.1,0
				c18.4,7.7,48.5,7.7,66.9,0"/>
		</g>
	</g>
	<g>
		<g>
			<path class="st3" d="M811.3,818c-18.8,7.8-49.4,7.8-68.1,0c-18.4-7.7-48.5-7.7-66.9,0c-18.8,7.8-49.4,7.8-68.1,0
				c-18.4-7.7-48.5-7.7-66.9,0c-18.8,7.8-49.4,7.8-68.1,0c-18.4-7.7-48.5-7.7-66.9,0c-18.8,7.8-49.3,7.8-68.1,0
				c-18.4-7.7-48.5-7.7-66.9,0c-18.8,7.8-49.4,7.8-68.1,0c-18.4-7.7-48.5-7.7-66.9,0c-18.8,7.8-49.4,7.8-68.1,0
				c-18.4-7.7-48.5-7.7-66.9,0"/>
			<path class="st3" d="M0.4,816.5c18.8-7.8,49.4-7.8,68.2,0c18.4,7.7,48.5,7.7,66.9,0c18.8-7.8,49.4-7.8,68.1,0
				c18.4,7.7,48.5,7.7,66.9,0c18.8-7.8,49.4-7.8,68.1,0c18.4,7.7,48.5,7.7,66.9,0c18.8-7.8,49.3-7.8,68.1,0
				c18.5,7.7,48.5,7.7,66.9,0c18.8-7.8,49.4-7.8,68.1,0c18.4,7.7,48.5,7.7,66.9,0c18.8-7.8,49.4-7.8,68.1,0
				c18.4,7.7,48.5,7.7,66.9,0"/>
		</g>
	</g>
	<g>
		<g>
			<path class="st3" d="M811.3,791.1c-18.8,7.8-49.4,7.8-68.1,0c-18.4-7.7-48.5-7.7-66.9,0c-18.8,7.8-49.4,7.8-68.1,0
				c-18.4-7.7-48.5-7.7-66.9,0c-18.8,7.8-49.4,7.8-68.1,0c-18.4-7.7-48.5-7.7-66.9,0c-18.8,7.8-49.3,7.8-68.1,0
				c-18.4-7.7-48.5-7.7-66.9,0c-18.8,7.8-49.4,7.8-68.1,0c-18.4-7.7-48.5-7.7-66.9,0c-18.8,7.8-49.4,7.8-68.1,0
				c-18.4-7.7-48.5-7.7-66.9,0"/>
			<path class="st3" d="M0.4,789.7c18.8-7.8,49.4-7.8,68.2,0c18.4,7.7,48.5,7.7,66.9,0c18.8-7.8,49.4-7.8,68.1,0
				c18.4,7.7,48.5,7.7,66.9,0c18.8-7.8,49.4-7.8,68.1,0c18.4,7.7,48.5,7.7,66.9,0c18.8-7.8,49.3-7.8,68.1,0
				c18.5,7.7,48.5,7.7,66.9,0c18.8-7.8,49.4-7.8,68.1,0c18.4,7.7,48.5,7.7,66.9,0c18.8-7.8,49.4-7.8,68.1,0
				c18.4,7.7,48.5,7.7,66.9,0"/>
		</g>
	</g>
	<g>
		<g>
			<path class="st3" d="M811.3,764.3c-18.8,7.8-49.4,7.8-68.1,0c-18.4-7.7-48.5-7.7-66.9,0c-18.8,7.8-49.4,7.8-68.1,0
				c-18.4-7.7-48.5-7.7-66.9,0c-18.8,7.8-49.4,7.8-68.1,0c-18.4-7.7-48.5-7.7-66.9,0c-18.8,7.8-49.3,7.8-68.1,0
				c-18.4-7.7-48.5-7.7-66.9,0c-18.8,7.8-49.4,7.8-68.1,0c-18.4-7.7-48.5-7.7-66.9,0c-18.8,7.8-49.4,7.8-68.1,0
				c-18.4-7.7-48.5-7.7-66.9,0"/>
			<path class="st3" d="M0.4,762.8c18.8-7.8,49.4-7.8,68.2,0c18.4,7.7,48.5,7.7,66.9,0c18.8-7.8,49.4-7.8,68.1,0
				c18.4,7.7,48.5,7.7,66.9,0c18.8-7.8,49.4-7.8,68.1,0c18.4,7.7,48.5,7.7,66.9,0c18.8-7.8,49.3-7.8,68.1,0
				c18.5,7.7,48.5,7.7,66.9,0c18.8-7.8,49.4-7.8,68.1,0c18.4,7.7,48.5,7.7,66.9,0c18.8-7.8,49.4-7.8,68.1,0
				c18.4,7.7,48.5,7.7,66.9,0"/>
		</g>
	</g>
	<g>
		<g>
			<path class="st3" d="M811.3,737.5c-18.8,7.8-49.4,7.8-68.1,0c-18.4-7.7-48.5-7.7-66.9,0c-18.8,7.8-49.4,7.8-68.1,0
				c-18.4-7.7-48.5-7.7-66.9,0c-18.8,7.8-49.4,7.8-68.1,0c-18.4-7.7-48.5-7.7-66.9,0c-18.8,7.8-49.3,7.8-68.1,0
				c-18.4-7.7-48.5-7.7-66.9,0c-18.8,7.8-49.4,7.8-68.1,0c-18.5-7.7-48.5-7.7-66.9,0c-18.8,7.8-49.4,7.8-68.1,0
				c-18.5-7.7-48.5-7.7-66.9,0"/>
			<path class="st3" d="M0.4,736c18.8-7.8,49.4-7.8,68.2,0c18.4,7.7,48.5,7.7,66.9,0c18.8-7.8,49.4-7.8,68.1,0
				c18.5,7.7,48.5,7.7,66.9,0c18.8-7.8,49.4-7.8,68.1,0c18.4,7.7,48.5,7.7,66.9,0c18.8-7.8,49.3-7.8,68.1,0
				c18.5,7.7,48.5,7.7,66.9,0c18.8-7.8,49.4-7.8,68.1,0c18.4,7.7,48.5,7.7,66.9,0c18.8-7.8,49.4-7.8,68.1,0
				c18.4,7.7,48.5,7.7,66.9,0"/>
		</g>
	</g>
	<g>
		<g>
			<path class="st3" d="M811.3,710.6c-18.8,7.8-49.4,7.8-68.1,0c-18.4-7.7-48.5-7.7-66.9,0c-18.8,7.8-49.4,7.8-68.1,0
				c-18.4-7.7-48.5-7.7-66.9,0c-18.8,7.8-49.4,7.8-68.1,0c-18.4-7.7-48.5-7.7-66.9,0c-18.8,7.8-49.3,7.8-68.1,0
				c-18.4-7.7-48.5-7.7-66.9,0c-18.8,7.8-49.4,7.8-68.1,0c-18.5-7.7-48.5-7.7-66.9,0c-18.8,7.8-49.4,7.8-68.1,0
				c-18.5-7.7-48.5-7.7-66.9,0"/>
			<path class="st3" d="M0.4,709.2c18.8-7.8,49.4-7.8,68.2,0c18.4,7.7,48.5,7.7,66.9,0c18.8-7.8,49.4-7.8,68.1,0
				c18.5,7.7,48.5,7.7,66.9,0c18.8-7.8,49.4-7.8,68.1,0c18.4,7.7,48.5,7.7,66.9,0c18.8-7.8,49.3-7.8,68.1,0
				c18.5,7.7,48.5,7.7,66.9,0c18.8-7.8,49.4-7.8,68.1,0c18.4,7.7,48.5,7.7,66.9,0c18.8-7.8,49.4-7.8,68.1,0
				c18.4,7.7,48.5,7.7,66.9,0"/>
		</g>
	</g>
	<g>
		<g>
			<path class="st3" d="M811.3,683.8c-18.8,7.8-49.4,7.8-68.1,0c-18.4-7.7-48.5-7.7-66.9,0c-18.8,7.8-49.4,7.8-68.1,0
				c-18.4-7.7-48.5-7.7-66.9,0c-18.8,7.8-49.4,7.8-68.1,0c-18.4-7.7-48.5-7.7-66.9,0c-18.8,7.8-49.3,7.8-68.1,0
				c-18.4-7.7-48.5-7.7-66.9,0c-18.8,7.8-49.4,7.8-68.1,0c-18.5-7.7-48.5-7.7-66.9,0c-18.8,7.8-49.4,7.8-68.1,0
				c-18.5-7.7-48.5-7.7-66.9,0"/>
			<path class="st3" d="M0.4,682.3c18.8-7.8,49.4-7.8,68.2,0c18.4,7.7,48.5,7.7,66.9,0c18.8-7.8,49.4-7.8,68.1,0
				c18.5,7.7,48.5,7.7,66.9,0c18.8-7.8,49.4-7.8,68.1,0c18.4,7.7,48.5,7.7,66.9,0c18.8-7.8,49.3-7.8,68.1,0
				c18.5,7.7,48.5,7.7,66.9,0c18.8-7.8,49.4-7.8,68.1,0c18.4,7.7,48.5,7.7,66.9,0c18.8-7.8,49.4-7.8,68.1,0
				c18.4,7.7,48.5,7.7,66.9,0"/>
		</g>
	</g>
	<g>
		<g>
			<path class="st3" d="M811.3,657c-18.8,7.8-49.4,7.8-68.1,0c-18.4-7.7-48.5-7.7-66.9,0c-18.8,7.8-49.4,7.8-68.1,0
				c-18.4-7.7-48.5-7.7-66.9,0c-18.8,7.8-49.4,7.8-68.1,0c-18.4-7.7-48.5-7.7-66.9,0c-18.8,7.8-49.3,7.8-68.1,0
				c-18.4-7.7-48.5-7.7-66.9,0c-18.8,7.8-49.4,7.8-68.1,0c-18.5-7.7-48.5-7.7-66.9,0c-18.8,7.8-49.4,7.8-68.1,0
				c-18.5-7.7-48.5-7.7-66.9,0"/>
			<path class="st3" d="M0.4,655.5c18.8-7.8,49.4-7.8,68.2,0c18.4,7.7,48.5,7.7,66.9,0c18.8-7.8,49.4-7.8,68.1,0
				c18.5,7.7,48.5,7.7,66.9,0c18.8-7.8,49.4-7.8,68.1,0c18.4,7.7,48.5,7.7,66.9,0c18.8-7.8,49.3-7.8,68.1,0
				c18.5,7.7,48.5,7.7,66.9,0c18.8-7.8,49.4-7.8,68.1,0c18.4,7.7,48.5,7.7,66.9,0c18.8-7.8,49.4-7.8,68.1,0
				c18.4,7.7,48.5,7.7,66.9,0"/>
		</g>
	</g>
	<g>
		<g>
			<path class="st3" d="M811.3,630.1c-18.8,7.8-49.4,7.8-68.1,0c-18.4-7.7-48.5-7.7-66.9,0c-18.8,7.8-49.4,7.8-68.1,0
				c-18.4-7.7-48.5-7.7-66.9,0c-18.8,7.8-49.4,7.8-68.1,0c-18.4-7.7-48.5-7.7-66.9,0c-18.8,7.8-49.3,7.8-68.1,0
				c-18.4-7.7-48.5-7.7-66.9,0c-18.8,7.8-49.4,7.8-68.1,0c-18.5-7.7-48.5-7.7-66.9,0c-18.8,7.8-49.4,7.8-68.1,0
				c-18.5-7.7-48.5-7.7-66.9,0"/>
			<path class="st3" d="M0.4,628.7c18.8-7.8,49.4-7.8,68.2,0c18.4,7.7,48.5,7.7,66.9,0c18.8-7.8,49.4-7.8,68.1,0
				c18.5,7.7,48.5,7.7,66.9,0c18.8-7.8,49.4-7.8,68.1,0c18.4,7.7,48.5,7.7,66.9,0c18.8-7.8,49.3-7.8,68.1,0
				c18.5,7.7,48.5,7.7,66.9,0c18.8-7.8,49.4-7.8,68.1,0c18.4,7.7,48.5,7.7,66.9,0c18.8-7.8,49.4-7.8,68.1,0
				c18.4,7.7,48.5,7.7,66.9,0"/>
		</g>
	</g>
	<g>
		<g>
			<path class="st3" d="M811.3,603.3c-18.8,7.8-49.4,7.8-68.1,0c-18.4-7.7-48.5-7.7-66.9,0c-18.8,7.8-49.4,7.8-68.1,0
				c-18.4-7.7-48.5-7.7-66.9,0c-18.8,7.8-49.4,7.8-68.1,0c-18.4-7.7-48.5-7.7-66.9,0c-18.8,7.8-49.3,7.8-68.1,0
				c-18.4-7.7-48.5-7.7-66.9,0c-18.8,7.8-49.4,7.8-68.1,0c-18.4-7.7-48.5-7.7-66.9,0c-18.8,7.8-49.4,7.8-68.1,0
				c-18.5-7.7-48.5-7.7-66.9,0"/>
			<path class="st3" d="M0.4,601.8c18.8-7.8,49.4-7.8,68.2,0c18.4,7.7,48.5,7.7,66.9,0c18.8-7.8,49.4-7.8,68.1,0
				c18.5,7.7,48.5,7.7,66.9,0c18.8-7.8,49.4-7.8,68.1,0c18.4,7.7,48.5,7.7,66.9,0c18.8-7.8,49.3-7.8,68.1,0
				c18.5,7.7,48.5,7.7,66.9,0c18.8-7.8,49.4-7.8,68.1,0c18.4,7.7,48.5,7.7,66.9,0c18.8-7.8,49.4-7.8,68.1,0
				c18.4,7.7,48.5,7.7,66.9,0"/>
		</g>
	</g>
	<g>
		<g>
			<path class="st3" d="M811.3,576.5c-18.8,7.8-49.4,7.8-68.1,0c-18.4-7.7-48.5-7.7-66.9,0c-18.8,7.8-49.4,7.8-68.1,0
				c-18.4-7.7-48.5-7.7-66.9,0c-18.8,7.8-49.4,7.8-68.1,0c-18.4-7.7-48.5-7.7-66.9,0c-18.8,7.8-49.3,7.8-68.1,0
				c-18.4-7.7-48.5-7.7-66.9,0c-18.8,7.8-49.4,7.8-68.1,0c-18.4-7.7-48.5-7.7-66.9,0c-18.8,7.8-49.4,7.8-68.1,0
				c-18.4-7.7-48.5-7.7-66.9,0"/>
			<path class="st3" d="M0.4,575c18.8-7.8,49.4-7.8,68.2,0c18.4,7.7,48.5,7.7,66.9,0c18.8-7.8,49.4-7.8,68.1,0
				c18.4,7.7,48.5,7.7,66.9,0c18.8-7.8,49.4-7.8,68.1,0c18.4,7.7,48.5,7.7,66.9,0c18.8-7.8,49.3-7.8,68.1,0
				c18.5,7.7,48.5,7.7,66.9,0c18.8-7.8,49.4-7.8,68.1,0c18.4,7.7,48.5,7.7,66.9,0c18.8-7.8,49.4-7.8,68.1,0
				c18.4,7.7,48.5,7.7,66.9,0"/>
		</g>
	</g>
	<g>
		<g>
			<path class="st3" d="M811.3,549.6c-18.8,7.8-49.4,7.8-68.1,0c-18.4-7.7-48.5-7.7-66.9,0c-18.8,7.8-49.4,7.8-68.1,0
				c-18.4-7.7-48.5-7.7-66.9,0c-18.8,7.8-49.4,7.8-68.1,0c-18.4-7.7-48.5-7.7-66.9,0c-18.8,7.8-49.3,7.8-68.1,0
				c-18.4-7.7-48.5-7.7-66.9,0c-18.8,7.8-49.4,7.8-68.1,0c-18.4-7.7-48.5-7.7-66.9,0c-18.8,7.8-49.4,7.8-68.1,0
				c-18.4-7.7-48.5-7.7-66.9,0"/>
			<path class="st3" d="M0.4,548.2c18.8-7.8,49.4-7.8,68.2,0c18.4,7.7,48.5,7.7,66.9,0c18.8-7.8,49.4-7.8,68.1,0
				c18.4,7.7,48.5,7.7,66.9,0c18.8-7.8,49.4-7.8,68.1,0c18.4,7.7,48.5,7.7,66.9,0c18.8-7.8,49.3-7.8,68.1,0
				c18.5,7.7,48.5,7.7,66.9,0c18.8-7.8,49.4-7.8,68.1,0c18.4,7.7,48.5,7.7,66.9,0c18.8-7.8,49.4-7.8,68.1,0
				c18.4,7.7,48.5,7.7,66.9,0"/>
		</g>
	</g>
	<g>
		<g>
			<path class="st3" d="M811.3,522.8c-18.8,7.8-49.4,7.8-68.1,0c-18.4-7.7-48.5-7.7-66.9,0c-18.8,7.8-49.4,7.8-68.1,0
				c-18.4-7.7-48.5-7.7-66.9,0c-18.8,7.8-49.4,7.8-68.1,0c-18.4-7.7-48.5-7.7-66.9,0c-18.8,7.8-49.3,7.8-68.1,0
				c-18.4-7.7-48.5-7.7-66.9,0c-18.8,7.8-49.4,7.8-68.1,0c-18.4-7.7-48.5-7.7-66.9,0c-18.8,7.8-49.4,7.8-68.1,0
				c-18.4-7.7-48.5-7.7-66.9,0"/>
			<path class="st3" d="M0.4,521.3c18.8-7.8,49.4-7.8,68.2,0c18.4,7.7,48.5,7.7,66.9,0c18.8-7.8,49.4-7.8,68.1,0
				c18.4,7.7,48.5,7.7,66.9,0c18.8-7.8,49.4-7.8,68.1,0c18.4,7.7,48.5,7.7,66.9,0c18.8-7.8,49.3-7.8,68.1,0
				c18.5,7.7,48.5,7.7,66.9,0c18.8-7.8,49.4-7.8,68.1,0c18.4,7.7,48.5,7.7,66.9,0c18.8-7.8,49.4-7.8,68.1,0
				c18.4,7.7,48.5,7.7,66.9,0"/>
		</g>
	</g>
	<g>
		<g>
			<path class="st3" d="M811.3,496c-18.8,7.8-49.4,7.8-68.1,0c-18.4-7.7-48.5-7.7-66.9,0c-18.8,7.8-49.4,7.8-68.1,0
				c-18.4-7.7-48.5-7.7-66.9,0c-18.8,7.8-49.4,7.8-68.1,0c-18.4-7.7-48.5-7.7-66.9,0c-18.8,7.8-49.3,7.8-68.1,0
				c-18.4-7.7-48.5-7.7-66.9,0c-18.8,7.8-49.4,7.8-68.1,0c-18.4-7.7-48.5-7.7-66.9,0c-18.8,7.8-49.4,7.8-68.1,0
				c-18.4-7.7-48.5-7.7-66.9,0"/>
			<path class="st3" d="M0.4,494.5c18.8-7.8,49.4-7.8,68.2,0c18.4,7.7,48.5,7.7,66.9,0c18.8-7.8,49.4-7.8,68.1,0
				c18.4,7.7,48.5,7.7,66.9,0c18.8-7.8,49.4-7.8,68.1,0c18.4,7.7,48.5,7.7,66.9,0c18.8-7.8,49.3-7.8,68.1,0
				c18.5,7.7,48.5,7.7,66.9,0c18.8-7.8,49.4-7.8,68.1,0c18.4,7.7,48.5,7.7,66.9,0c18.8-7.8,49.4-7.8,68.1,0
				c18.4,7.7,48.5,7.7,66.9,0"/>
		</g>
	</g>
	<g>
		<g>
			<path class="st3" d="M811.3,469.2c-18.8,7.8-49.4,7.8-68.1,0c-18.4-7.7-48.5-7.7-66.9,0c-18.8,7.8-49.4,7.8-68.1,0
				c-18.4-7.7-48.5-7.7-66.9,0c-18.8,7.8-49.4,7.8-68.1,0c-18.4-7.7-48.5-7.7-66.9,0c-18.8,7.8-49.3,7.8-68.1,0
				c-18.4-7.7-48.5-7.7-66.9,0c-18.8,7.8-49.4,7.8-68.1,0c-18.4-7.7-48.5-7.7-66.9,0c-18.8,7.8-49.4,7.8-68.1,0
				c-18.4-7.7-48.5-7.7-66.9,0"/>
			<path class="st3" d="M0.4,467.7c18.8-7.8,49.4-7.8,68.2,0c18.4,7.7,48.5,7.7,66.9,0c18.8-7.8,49.4-7.8,68.1,0
				c18.4,7.7,48.5,7.7,66.9,0c18.8-7.8,49.4-7.8,68.1,0c18.4,7.7,48.5,7.7,66.9,0c18.8-7.8,49.3-7.8,68.1,0
				c18.5,7.7,48.5,7.7,66.9,0c18.8-7.8,49.4-7.8,68.1,0c18.4,7.7,48.5,7.7,66.9,0c18.8-7.8,49.4-7.8,68.1,0
				c18.4,7.7,48.5,7.7,66.9,0"/>
		</g>
	</g>
	<g>
		<g>
			<path class="st3" d="M811.3,442.3c-18.8,7.8-49.4,7.8-68.1,0c-18.4-7.7-48.5-7.7-66.9,0c-18.8,7.8-49.4,7.8-68.1,0
				c-18.4-7.7-48.5-7.7-66.9,0c-18.8,7.8-49.4,7.8-68.1,0c-18.4-7.7-48.5-7.7-66.9,0c-18.8,7.8-49.3,7.8-68.1,0
				c-18.4-7.7-48.5-7.7-66.9,0c-18.8,7.8-49.4,7.8-68.1,0c-18.5-7.7-48.5-7.7-66.9,0c-18.8,7.8-49.4,7.8-68.1,0
				c-18.5-7.7-48.5-7.7-66.9,0"/>
			<path class="st3" d="M0.4,440.8c18.8-7.8,49.4-7.8,68.2,0c18.4,7.7,48.5,7.7,66.9,0c18.8-7.8,49.4-7.8,68.1,0
				c18.5,7.7,48.5,7.7,66.9,0c18.8-7.8,49.4-7.8,68.1,0c18.4,7.7,48.5,7.7,66.9,0c18.8-7.8,49.3-7.8,68.1,0
				c18.5,7.7,48.5,7.7,66.9,0c18.8-7.8,49.4-7.8,68.1,0c18.4,7.7,48.5,7.7,66.9,0c18.8-7.8,49.4-7.8,68.1,0
				c18.4,7.7,48.5,7.7,66.9,0"/>
		</g>
	</g>
	<g>
		<g>
			<path class="st3" d="M811.3,415.5c-18.8,7.8-49.4,7.8-68.1,0c-18.4-7.7-48.5-7.7-66.9,0c-18.8,7.8-49.4,7.8-68.1,0
				c-18.4-7.7-48.5-7.7-66.9,0c-18.8,7.8-49.4,7.8-68.1,0c-18.4-7.7-48.5-7.7-66.9,0c-18.8,7.8-49.3,7.8-68.1,0
				c-18.4-7.7-48.5-7.7-66.9,0c-18.8,7.8-49.4,7.8-68.1,0c-18.5-7.7-48.5-7.7-66.9,0c-18.8,7.8-49.4,7.8-68.1,0
				c-18.5-7.7-48.5-7.7-66.9,0"/>
			<path class="st3" d="M0.4,414c18.8-7.8,49.4-7.8,68.2,0c18.4,7.7,48.5,7.7,66.9,0c18.8-7.8,49.4-7.8,68.1,0
				c18.5,7.7,48.5,7.7,66.9,0c18.8-7.8,49.4-7.8,68.1,0c18.4,7.7,48.5,7.7,66.9,0c18.8-7.8,49.3-7.8,68.1,0
				c18.5,7.7,48.5,7.7,66.9,0c18.8-7.8,49.4-7.8,68.1,0c18.4,7.7,48.5,7.7,66.9,0c18.8-7.8,49.4-7.8,68.1,0
				c18.4,7.7,48.5,7.7,66.9,0"/>
		</g>
	</g>
	<g>
		<g>
			<path class="st3" d="M811.3,388.7c-18.8,7.8-49.4,7.8-68.1,0c-18.4-7.7-48.5-7.7-66.9,0c-18.8,7.8-49.4,7.8-68.1,0
				c-18.4-7.7-48.5-7.7-66.9,0c-18.8,7.8-49.4,7.8-68.1,0c-18.4-7.7-48.5-7.7-66.9,0c-18.8,7.8-49.3,7.8-68.1,0
				c-18.4-7.7-48.5-7.7-66.9,0c-18.8,7.8-49.4,7.8-68.1,0c-18.5-7.7-48.5-7.7-66.9,0c-18.8,7.8-49.4,7.8-68.1,0
				c-18.5-7.7-48.5-7.7-66.9,0"/>
			<path class="st3" d="M0.4,387.2c18.8-7.8,49.4-7.8,68.2,0c18.4,7.7,48.5,7.7,66.9,0c18.8-7.8,49.4-7.8,68.1,0
				c18.5,7.7,48.5,7.7,66.9,0c18.8-7.8,49.4-7.8,68.1,0c18.4,7.7,48.5,7.7,66.9,0c18.8-7.8,49.3-7.8,68.1,0
				c18.5,7.7,48.5,7.7,66.9,0c18.8-7.8,49.4-7.8,68.1,0c18.4,7.7,48.5,7.7,66.9,0c18.8-7.8,49.4-7.8,68.1,0
				c18.4,7.7,48.5,7.7,66.9,0"/>
		</g>
	</g>
	<g>
		<g>
			<path class="st3" d="M811.3,361.8c-18.8,7.8-49.4,7.8-68.1,0c-18.4-7.7-48.5-7.7-66.9,0c-18.8,7.8-49.4,7.8-68.1,0
				c-18.4-7.7-48.5-7.7-66.9,0c-18.8,7.8-49.4,7.8-68.1,0c-18.4-7.7-48.5-7.7-66.9,0c-18.8,7.8-49.3,7.8-68.1,0
				c-18.4-7.7-48.5-7.7-66.9,0c-18.8,7.8-49.4,7.8-68.1,0c-18.5-7.7-48.5-7.7-66.9,0c-18.8,7.8-49.4,7.8-68.1,0
				c-18.5-7.7-48.5-7.7-66.9,0"/>
			<path class="st3" d="M0.4,360.4c18.8-7.8,49.4-7.8,68.2,0c18.4,7.7,48.5,7.7,66.9,0c18.8-7.8,49.4-7.8,68.1,0
				c18.5,7.7,48.5,7.7,66.9,0c18.8-7.8,49.4-7.8,68.1,0c18.4,7.7,48.5,7.7,66.9,0c18.8-7.8,49.3-7.8,68.1,0
				c18.5,7.7,48.5,7.7,66.9,0c18.8-7.8,49.4-7.8,68.1,0c18.4,7.7,48.5,7.7,66.9,0c18.8-7.8,49.4-7.8,68.1,0
				c18.4,7.7,48.5,7.7,66.9,0"/>
		</g>
	</g>
	<g>
		<g>
			<path class="st3" d="M811.3,335c-18.8,7.8-49.4,7.8-68.1,0c-18.4-7.7-48.5-7.7-66.9,0c-18.8,7.8-49.4,7.8-68.1,0
				c-18.4-7.7-48.5-7.7-66.9,0c-18.8,7.8-49.4,7.8-68.1,0c-18.4-7.7-48.5-7.7-66.9,0c-18.8,7.8-49.4,7.8-68.1,0
				c-18.4-7.7-48.5-7.7-66.9,0c-18.8,7.8-49.4,7.8-68.1,0c-18.4-7.7-48.5-7.7-66.9,0c-18.8,7.8-49.4,7.8-68.1,0
				c-18.5-7.7-48.5-7.7-66.9,0"/>
			<path class="st3" d="M0.4,333.5c18.8-7.8,49.4-7.8,68.2,0c18.4,7.7,48.5,7.7,66.9,0c18.8-7.8,49.4-7.8,68.1,0
				c18.5,7.7,48.5,7.7,66.9,0c18.8-7.8,49.4-7.8,68.1,0c18.4,7.7,48.5,7.7,66.9,0c18.8-7.8,49.3-7.8,68.1,0
				c18.5,7.7,48.5,7.7,66.9,0c18.8-7.8,49.4-7.8,68.1,0c18.4,7.7,48.5,7.7,66.9,0c18.8-7.8,49.4-7.8,68.1,0
				c18.4,7.7,48.5,7.7,66.9,0"/>
		</g>
	</g>
	<g>
		<g>
			<path class="st3" d="M811.3,308.2c-18.8,7.8-49.4,7.8-68.1,0c-18.4-7.7-48.5-7.7-66.9,0c-18.8,7.8-49.4,7.8-68.1,0
				c-18.4-7.7-48.5-7.7-66.9,0c-18.8,7.8-49.4,7.8-68.1,0c-18.4-7.7-48.5-7.7-66.9,0c-18.8,7.8-49.4,7.8-68.1,0
				c-18.4-7.7-48.5-7.7-66.9,0c-18.8,7.8-49.4,7.8-68.1,0c-18.4-7.7-48.5-7.7-66.9,0c-18.8,7.8-49.4,7.8-68.1,0
				c-18.5-7.7-48.5-7.7-66.9,0"/>
			<path class="st3" d="M0.4,306.7c18.8-7.8,49.4-7.8,68.2,0c18.4,7.7,48.5,7.7,66.9,0c18.8-7.8,49.4-7.8,68.1,0
				c18.4,7.7,48.5,7.7,66.9,0c18.8-7.8,49.4-7.8,68.1,0c18.4,7.7,48.5,7.7,66.9,0c18.8-7.8,49.3-7.8,68.1,0
				c18.5,7.7,48.5,7.7,66.9,0c18.8-7.8,49.4-7.8,68.1,0c18.4,7.7,48.5,7.7,66.9,0c18.8-7.8,49.4-7.8,68.1,0
				c18.4,7.7,48.5,7.7,66.9,0"/>
		</g>
	</g>
	<g>
		<g>
			<path class="st3" d="M811.3,281.3c-18.8,7.8-49.4,7.8-68.1,0c-18.4-7.7-48.5-7.7-66.9,0c-18.8,7.8-49.4,7.8-68.1,0
				c-18.4-7.7-48.5-7.7-66.9,0c-18.8,7.8-49.4,7.8-68.1,0c-18.4-7.7-48.5-7.7-66.9,0c-18.8,7.8-49.4,7.8-68.1,0
				c-18.4-7.7-48.5-7.7-66.9,0c-18.8,7.8-49.4,7.8-68.1,0c-18.4-7.7-48.5-7.7-66.9,0c-18.8,7.8-49.4,7.8-68.1,0
				c-18.5-7.7-48.5-7.7-66.9,0"/>
			<path class="st3" d="M0.4,279.9c18.8-7.8,49.4-7.8,68.2,0c18.4,7.7,48.5,7.7,66.9,0c18.8-7.8,49.4-7.8,68.1,0
				c18.4,7.7,48.5,7.7,66.9,0c18.8-7.8,49.4-7.8,68.1,0c18.4,7.7,48.5,7.7,66.9,0c18.8-7.8,49.3-7.8,68.1,0
				c18.5,7.7,48.5,7.7,66.9,0c18.8-7.8,49.4-7.8,68.1,0c18.4,7.7,48.5,7.7,66.9,0c18.8-7.8,49.4-7.8,68.1,0
				c18.4,7.7,48.5,7.7,66.9,0"/>
		</g>
	</g>
	<g>
		<g>
			<path class="st3" d="M811.3,254.5c-18.8,7.8-49.4,7.8-68.1,0c-18.4-7.7-48.5-7.7-66.9,0c-18.8,7.8-49.4,7.8-68.1,0
				c-18.4-7.7-48.5-7.7-66.9,0c-18.8,7.8-49.4,7.8-68.1,0c-18.4-7.7-48.5-7.7-66.9,0c-18.8,7.8-49.4,7.8-68.1,0
				c-18.4-7.7-48.5-7.7-66.9,0c-18.8,7.8-49.4,7.8-68.1,0c-18.4-7.7-48.5-7.7-66.9,0c-18.8,7.8-49.4,7.8-68.1,0
				c-18.5-7.7-48.5-7.7-66.9,0"/>
			<path class="st3" d="M0.4,253c18.8-7.8,49.4-7.8,68.2,0c18.4,7.7,48.5,7.7,66.9,0c18.8-7.8,49.4-7.8,68.1,0
				c18.4,7.7,48.5,7.7,66.9,0c18.8-7.8,49.4-7.8,68.1,0c18.4,7.7,48.5,7.7,66.9,0c18.8-7.8,49.3-7.8,68.1,0
				c18.5,7.7,48.5,7.7,66.9,0c18.8-7.8,49.4-7.8,68.1,0c18.4,7.7,48.5,7.7,66.9,0c18.8-7.8,49.4-7.8,68.1,0
				c18.4,7.7,48.5,7.7,66.9,0"/>
		</g>
	</g>
	<g>
		<g>
			<path class="st3" d="M811.3,227.7c-18.8,7.8-49.4,7.8-68.1,0c-18.4-7.7-48.5-7.7-66.9,0c-18.8,7.8-49.4,7.8-68.1,0
				c-18.4-7.7-48.5-7.7-66.9,0c-18.8,7.8-49.4,7.8-68.1,0c-18.4-7.7-48.5-7.7-66.9,0c-18.8,7.8-49.4,7.8-68.1,0
				c-18.4-7.7-48.5-7.7-66.9,0c-18.8,7.8-49.4,7.8-68.1,0c-18.4-7.7-48.5-7.7-66.9,0c-18.8,7.8-49.4,7.8-68.1,0
				c-18.5-7.7-48.5-7.7-66.9,0"/>
			<path class="st3" d="M0.4,226.2c18.8-7.8,49.4-7.8,68.2,0c18.4,7.7,48.5,7.7,66.9,0c18.8-7.8,49.4-7.8,68.1,0
				c18.4,7.7,48.5,7.7,66.9,0c18.8-7.8,49.4-7.8,68.1,0c18.4,7.7,48.5,7.7,66.9,0c18.8-7.8,49.3-7.8,68.1,0
				c18.5,7.7,48.5,7.7,66.9,0c18.8-7.8,49.4-7.8,68.1,0c18.4,7.7,48.5,7.7,66.9,0c18.8-7.8,49.4-7.8,68.1,0
				c18.4,7.7,48.5,7.7,66.9,0"/>
		</g>
	</g>
	<g>
		<g>
			<path class="st3" d="M811.3,200.8c-18.8,7.8-49.4,7.8-68.1,0c-18.4-7.7-48.5-7.7-66.9,0c-18.8,7.8-49.4,7.8-68.1,0
				c-18.4-7.7-48.5-7.7-66.9,0c-18.8,7.8-49.4,7.8-68.1,0c-18.4-7.7-48.5-7.7-66.9,0c-18.8,7.8-49.4,7.8-68.1,0
				c-18.4-7.7-48.5-7.7-66.9,0c-18.8,7.8-49.4,7.8-68.1,0c-18.4-7.7-48.5-7.7-66.9,0c-18.8,7.8-49.4,7.8-68.1,0
				c-18.5-7.7-48.5-7.7-66.9,0"/>
			<path class="st3" d="M0.4,199.4c18.8-7.8,49.4-7.8,68.2,0c18.4,7.7,48.5,7.7,66.9,0c18.8-7.8,49.4-7.8,68.1,0
				c18.5,7.7,48.5,7.7,66.9,0c18.8-7.8,49.4-7.8,68.1,0c18.4,7.7,48.5,7.7,66.9,0c18.8-7.8,49.3-7.8,68.1,0
				c18.5,7.7,48.5,7.7,66.9,0c18.8-7.8,49.4-7.8,68.1,0c18.4,7.7,48.5,7.7,66.9,0c18.8-7.8,49.4-7.8,68.1,0
				c18.4,7.7,48.5,7.7,66.9,0"/>
		</g>
	</g>
	<g>
		<g>
			<path class="st3" d="M811.3,174c-18.8,7.8-49.4,7.8-68.1,0c-18.4-7.7-48.5-7.7-66.9,0c-18.8,7.8-49.4,7.8-68.1,0
				c-18.4-7.7-48.5-7.7-66.9,0c-18.8,7.8-49.4,7.8-68.1,0c-18.5-7.7-48.5-7.7-66.9,0c-18.8,7.8-49.3,7.8-68.1,0
				c-18.4-7.7-48.5-7.7-66.9,0c-18.8,7.8-49.4,7.8-68.1,0c-18.5-7.7-48.5-7.7-66.9,0c-18.8,7.8-49.4,7.8-68.1,0
				c-18.4-7.7-48.5-7.7-66.9,0"/>
			<path class="st3" d="M0.4,172.5c18.8-7.8,49.4-7.8,68.2,0c18.4,7.7,48.5,7.7,66.9,0c18.8-7.8,49.4-7.8,68.1,0
				c18.5,7.7,48.5,7.7,66.9,0c18.8-7.8,49.4-7.8,68.1,0c18.4,7.7,48.5,7.7,66.9,0c18.8-7.8,49.4-7.8,68.1,0
				c18.4,7.7,48.5,7.7,66.9,0c18.8-7.8,49.4-7.8,68.1,0c18.4,7.7,48.5,7.7,66.9,0c18.8-7.8,49.4-7.8,68.1,0
				c18.4,7.7,48.5,7.7,66.9,0"/>
		</g>
	</g>
	<g>
		<g>
			<path class="st3" d="M811.3,147.2c-18.8,7.8-49.4,7.8-68.1,0c-18.4-7.7-48.5-7.7-66.9,0c-18.8,7.8-49.4,7.8-68.1,0
				c-18.4-7.7-48.5-7.7-66.9,0c-18.8,7.8-49.4,7.8-68.1,0c-18.5-7.7-48.5-7.7-66.9,0c-18.8,7.8-49.3,7.8-68.1,0
				c-18.4-7.7-48.5-7.7-66.9,0c-18.8,7.8-49.4,7.8-68.1,0c-18.5-7.7-48.5-7.7-66.9,0c-18.8,7.8-49.4,7.8-68.1,0
				c-18.4-7.7-48.5-7.7-66.9,0"/>
			<path class="st3" d="M0.4,145.7c18.8-7.8,49.4-7.8,68.2,0c18.4,7.7,48.5,7.7,66.9,0c18.8-7.8,49.4-7.8,68.1,0
				c18.5,7.7,48.5,7.7,66.9,0c18.8-7.8,49.4-7.8,68.1,0c18.4,7.7,48.5,7.7,66.9,0c18.8-7.8,49.4-7.8,68.1,0
				c18.4,7.7,48.5,7.7,66.9,0c18.8-7.8,49.4-7.8,68.1,0c18.4,7.7,48.5,7.7,66.9,0c18.8-7.8,49.4-7.8,68.1,0
				c18.4,7.7,48.5,7.7,66.9,0"/>
		</g>
	</g>
	<g>
		<g>
			<path class="st3" d="M811.3,120.3c-18.8,7.8-49.4,7.8-68.1,0c-18.4-7.7-48.5-7.7-66.9,0c-18.8,7.8-49.4,7.8-68.1,0
				c-18.4-7.7-48.5-7.7-66.9,0c-18.8,7.8-49.4,7.8-68.1,0c-18.5-7.7-48.5-7.7-66.9,0c-18.8,7.8-49.3,7.8-68.1,0
				c-18.4-7.7-48.5-7.7-66.9,0c-18.8,7.8-49.4,7.8-68.1,0c-18.5-7.7-48.5-7.7-66.9,0c-18.8,7.8-49.4,7.8-68.1,0
				c-18.4-7.7-48.5-7.7-66.9,0"/>
			<path class="st3" d="M0.4,118.9c18.8-7.8,49.4-7.8,68.2,0c18.4,7.7,48.5,7.7,66.9,0c18.8-7.8,49.4-7.8,68.1,0
				c18.5,7.7,48.5,7.7,66.9,0c18.8-7.8,49.4-7.8,68.1,0c18.4,7.7,48.5,7.7,66.9,0c18.8-7.8,49.4-7.8,68.1,0
				c18.4,7.7,48.5,7.7,66.9,0c18.8-7.8,49.4-7.8,68.1,0c18.4,7.7,48.5,7.7,66.9,0c18.8-7.8,49.4-7.8,68.1,0
				c18.4,7.7,48.5,7.7,66.9,0"/>
		</g>
	</g>
	<g>
		<g>
			<path class="st3" d="M811.3,93.5c-18.8,7.8-49.4,7.8-68.1,0c-18.4-7.7-48.5-7.7-66.9,0c-18.8,7.8-49.4,7.8-68.1,0
				c-18.4-7.7-48.5-7.7-66.9,0c-18.8,7.8-49.4,7.8-68.1,0c-18.5-7.7-48.5-7.7-66.9,0c-18.8,7.8-49.3,7.8-68.1,0
				c-18.4-7.7-48.5-7.7-66.9,0c-18.8,7.8-49.4,7.8-68.1,0c-18.5-7.7-48.5-7.7-66.9,0c-18.8,7.8-49.4,7.8-68.1,0
				c-18.4-7.7-48.5-7.7-66.9,0"/>
			<path class="st3" d="M0.4,92c18.8-7.8,49.4-7.8,68.2,0c18.4,7.7,48.5,7.7,66.9,0c18.8-7.8,49.4-7.8,68.1,0
				c18.5,7.7,48.5,7.7,66.9,0c18.8-7.8,49.4-7.8,68.1,0c18.4,7.7,48.5,7.7,66.9,0c18.8-7.8,49.4-7.8,68.1,0
				c18.4,7.7,48.5,7.7,66.9,0c18.8-7.8,49.4-7.8,68.1,0c18.4,7.7,48.5,7.7,66.9,0c18.8-7.8,49.4-7.8,68.1,0
				c18.4,7.7,48.5,7.7,66.9,0"/>
		</g>
	</g>
	<g>
		<g>
			<path class="st3" d="M811.3,66.7c-18.8,7.8-49.4,7.8-68.1,0c-18.4-7.7-48.5-7.7-66.9,0c-18.8,7.8-49.4,7.8-68.1,0
				c-18.4-7.7-48.5-7.7-66.9,0c-18.8,7.8-49.4,7.8-68.1,0c-18.5-7.7-48.5-7.7-66.9,0c-18.8,7.8-49.4,7.8-68.1,0
				c-18.4-7.7-48.5-7.7-66.9,0c-18.8,7.8-49.4,7.8-68.1,0c-18.4-7.7-48.5-7.7-66.9,0c-18.8,7.8-49.4,7.8-68.1,0
				C49.5,59,19.5,59,1,66.7"/>
			<path class="st3" d="M0.4,65.2c18.8-7.8,49.4-7.8,68.2,0c18.4,7.7,48.5,7.7,66.9,0c18.8-7.8,49.4-7.8,68.1,0
				c18.5,7.7,48.5,7.7,66.9,0c18.8-7.8,49.4-7.8,68.1,0c18.4,7.7,48.5,7.7,66.9,0c18.8-7.8,49.4-7.8,68.1,0
				c18.4,7.7,48.5,7.7,66.9,0c18.8-7.8,49.4-7.8,68.1,0c18.4,7.7,48.5,7.7,66.9,0c18.8-7.8,49.4-7.8,68.1,0
				c18.4,7.7,48.5,7.7,66.9,0"/>
		</g>
	</g>
	<g>
		<g>
			<path class="st3" d="M811.3,39.9c-18.8,7.8-49.4,7.8-68.1,0c-18.4-7.7-48.5-7.7-66.9,0c-18.8,7.8-49.4,7.8-68.1,0
				c-18.4-7.7-48.5-7.7-66.9,0c-18.8,7.8-49.4,7.8-68.1,0c-18.5-7.7-48.5-7.7-66.9,0c-18.8,7.8-49.4,7.8-68.1,0
				c-18.4-7.7-48.5-7.7-66.9,0c-18.8,7.8-49.4,7.8-68.1,0c-18.4-7.7-48.5-7.7-66.9,0c-18.8,7.8-49.4,7.8-68.1,0
				c-18.4-7.7-48.5-7.7-66.9,0"/>
			<path class="st3" d="M0.4,38.4c18.8-7.8,49.4-7.8,68.2,0c18.4,7.7,48.5,7.7,66.9,0c18.8-7.8,49.4-7.8,68.1,0
				c18.4,7.7,48.5,7.7,66.9,0c18.8-7.8,49.4-7.8,68.1,0c18.4,7.7,48.5,7.7,66.9,0c18.8-7.8,49.4-7.8,68.1,0
				c18.5,7.7,48.5,7.7,66.9,0c18.8-7.8,49.4-7.8,68.1,0c18.4,7.7,48.5,7.7,66.9,0c18.8-7.8,49.4-7.8,68.1,0
				c18.4,7.7,48.5,7.7,66.9,0"/>
		</g>
	</g>
	<g>
		<g>
			<path class="st3" d="M811.3,13c-18.8,7.8-49.4,7.8-68.1,0c-18.4-7.7-48.5-7.7-66.9,0c-18.8,7.8-49.4,7.8-68.1,0
				c-18.4-7.7-48.5-7.7-66.9,0c-18.8,7.8-49.4,7.8-68.1,0c-18.5-7.7-48.5-7.7-66.9,0c-18.8,7.8-49.4,7.8-68.1,0
				c-18.4-7.7-48.5-7.7-66.9,0c-18.8,7.8-49.4,7.8-68.1,0c-18.4-7.7-48.5-7.7-66.9,0c-18.8,7.8-49.4,7.8-68.1,0
				C49.5,5.3,19.5,5.3,1,13"/>
			<path class="st3" d="M0.4,11.5c18.8-7.8,49.4-7.8,68.2,0c18.4,7.7,48.5,7.7,66.9,0c18.8-7.8,49.4-7.8,68.1,0
				c18.4,7.7,48.5,7.7,66.9,0c18.8-7.8,49.4-7.8,68.1,0c18.4,7.7,48.5,7.7,66.9,0c18.8-7.8,49.4-7.8,68.1,0
				c18.5,7.7,48.5,7.7,66.9,0c18.8-7.8,49.4-7.8,68.1,0c18.4,7.7,48.5,7.7,66.9,0c18.8-7.8,49.4-7.8,68.1,0
				c18.4,7.7,48.5,7.7,66.9,0"/>
		</g>
	</g>
</g>
</svg>
